<svg width="352" height="375" viewBox="0 0 352 375" fill="none" xmlns="http://www.w3.org/2000/svg">
<g clip-path="url(#clip0_447_34)">
<path d="M706 60C706 26.8629 679.137 0 646 0H433C399.863 0 373 26.8629 373 60V222.168C373 253.407 397.324 279.453 426.528 290.545C451.141 299.893 475.827 312.946 500.513 326C546.846 350.5 593.179 375 639.026 375H646C679.137 375 706 348.137 706 315V60Z" fill="#F5F7FF"/>
<path d="M727 315C727 348.137 753.863 375 787 375H978C1011.14 375 1038 348.137 1038 315V60C1038 26.8629 1011.14 0 978 0H787C753.863 0 727 26.8629 727 60V315Z" fill="#F5F7FF"/>
<path d="M0 60C0 26.8629 26.8629 0 60 0H292C325.137 0 352 26.8629 352 60V221.694C352 253.097 327.42 279.239 298.041 290.33C273.24 299.692 248.363 312.846 223.487 326C177.154 350.5 130.821 375 84.9737 375H60C26.8629 375 0 348.137 0 315V60Z" fill="#F5F7FF"/>
<path d="M-21 60C-21 26.8629 -47.8629 0 -81 0H-284C-317.137 0 -344 26.8629 -344 60V315C-344 348.137 -317.137 375 -284 375H-81C-47.8629 375 -21 348.137 -21 315V60Z" fill="#F5F7FF"/>
</g>
<defs>
<clipPath id="clip0_447_34">
<rect width="352" height="375" fill="white"/>
</clipPath>
</defs>
</svg>
