<svg width="352" height="375" viewBox="0 0 352 375" fill="none" xmlns="http://www.w3.org/2000/svg">
<g clip-path="url(#clip0_447_36)">
<path d="M-354 60C-354 26.8629 -327.137 0 -294 0H-81C-47.8629 0 -21 26.8629 -21 60V222.168C-21 253.407 -45.3242 279.453 -74.5278 290.545C-99.1406 299.893 -123.827 312.946 -148.513 326C-194.846 350.5 -241.179 375 -287.026 375H-294C-327.137 375 -354 348.137 -354 315V60Z" fill="#F5F7FF"/>
<path d="M-375 315C-375 348.137 -401.863 375 -435 375H-626C-659.137 375 -686 348.137 -686 315V60C-686 26.8629 -659.137 0 -626 0H-435C-401.863 0 -375 26.8629 -375 60V315Z" fill="#F5F7FF"/>
<path d="M352 60C352 26.8629 325.137 0 292 0H60C26.8629 0 0 26.8629 0 60V221.694C0 253.097 24.5801 279.239 53.9594 290.33C78.7604 299.692 103.637 312.846 128.513 326C174.846 350.5 221.179 375 267.026 375H292C325.137 375 352 348.137 352 315V60Z" fill="#F5F7FF"/>
<path d="M373 60C373 26.8629 399.863 0 433 0H636C669.137 0 696 26.8629 696 60V315C696 348.137 669.137 375 636 375H433C399.863 375 373 348.137 373 315V60Z" fill="#F5F7FF"/>
</g>
<defs>
<clipPath id="clip0_447_36">
<rect width="352" height="375" fill="white" transform="matrix(-1 0 0 1 352 0)"/>
</clipPath>
</defs>
</svg>
