<svg width="322" height="375" viewBox="0 0 322 375" fill="none" xmlns="http://www.w3.org/2000/svg">
<g clip-path="url(#clip0_447_32)">
<path d="M1050 60C1050 26.8629 1023.14 0 990 0H777C743.863 0 717 26.8629 717 60V222.168C717 253.407 741.324 279.453 770.528 290.545C795.141 299.893 819.827 312.946 844.513 326C890.846 350.5 937.179 375 983.026 375H990C1023.14 375 1050 348.137 1050 315V60Z" fill="#F5F7FF"/>
<path d="M1071 315C1071 348.137 1097.86 375 1131 375H1322C1355.14 375 1382 348.137 1382 315V60C1382 26.8629 1355.14 0 1322 0H1131C1097.86 0 1071 26.8629 1071 60V315Z" fill="#F5F7FF"/>
<path d="M344 60C344 26.8629 370.863 0 404 0H636C669.137 0 696 26.8629 696 60V221.694C696 253.097 671.42 279.239 642.041 290.33C617.24 299.692 592.363 312.846 567.487 326C521.154 350.5 474.821 375 428.974 375H404C370.863 375 344 348.137 344 315V60Z" fill="#F5F7FF"/>
<path d="M323 60C323 26.8629 296.137 0 263 0H60C26.8629 0 0 26.8629 0 60V315C0 348.137 26.8629 375 60 375H263C296.137 375 323 348.137 323 315V60Z" fill="#F5F7FF"/>
</g>
<defs>
<clipPath id="clip0_447_32">
<rect width="322" height="375" fill="white"/>
</clipPath>
</defs>
</svg>
