<svg width="192" height="57" viewBox="0 0 192 57" fill="none" xmlns="http://www.w3.org/2000/svg">
<g filter="url(#filter0_b_284_835)">
<rect width="191.154" height="56.0718" rx="12" transform="matrix(1 0 0 -1 0 56.0723)" fill="#F5F7FF"/>
</g>
<path d="M51.4598 34.444C51.1054 35.252 50.6858 35.9958 50.1996 36.6796C49.537 37.6119 48.9944 38.2572 48.5763 38.6155C47.9281 39.2037 47.2336 39.5049 46.4899 39.5221C45.956 39.5221 45.3122 39.3722 44.5627 39.0681C43.8108 38.7654 43.1197 38.6155 42.4879 38.6155C41.8252 38.6155 41.1145 38.7654 40.3544 39.0681C39.593 39.3722 38.9797 39.5306 38.5108 39.5463C37.7976 39.5763 37.0868 39.2665 36.3773 38.6155C35.9244 38.2258 35.358 37.5576 34.6794 36.6111C33.9513 35.6003 33.3528 34.4283 32.8838 33.092C32.3816 31.6486 32.1299 30.251 32.1299 28.8979C32.1299 27.3479 32.4693 26.0111 33.1492 24.8908C33.6835 23.991 34.3944 23.2811 35.284 22.76C36.1737 22.239 37.135 21.9734 38.1702 21.9564C38.7366 21.9564 39.4795 22.1293 40.4026 22.4691C41.323 22.81 41.9141 22.9829 42.1732 22.9829C42.3669 22.9829 43.0235 22.7807 44.1366 22.3777C45.1892 22.004 46.0775 21.8492 46.8053 21.9102C48.7774 22.0672 50.2589 22.8343 51.2442 24.2162C49.4805 25.2707 48.6081 26.7476 48.6254 28.6422C48.6414 30.1179 49.1839 31.346 50.2503 32.3211C50.7335 32.7736 51.2732 33.1234 51.8736 33.3718C51.7434 33.7444 51.606 34.1013 51.4598 34.444ZM46.937 16.8826C46.937 18.0393 46.5087 19.1193 45.6551 20.1189C44.6249 21.3073 43.3789 21.994 42.0277 21.8856C42.0104 21.7469 42.0005 21.6008 42.0005 21.4473C42.0005 20.3369 42.4904 19.1486 43.3604 18.1769C43.7947 17.6849 44.3471 17.2759 45.017 16.9496C45.6854 16.6281 46.3177 16.4504 46.9124 16.4199C46.9297 16.5745 46.937 16.7292 46.937 16.8826V16.8826Z" fill="#181B2E"/>
<path d="M75.2179 13.7011H76.1104V18.2795C76.1104 18.7877 75.9973 19.2107 75.7711 19.5484C75.5449 19.8862 75.2443 20.1403 74.8693 20.3107C74.4975 20.478 74.0931 20.5617 73.6562 20.5617C73.1976 20.5617 72.7823 20.478 72.4105 20.3107C72.0417 20.1403 71.7489 19.8862 71.532 19.5484C71.3182 19.2107 71.2113 18.7877 71.2113 18.2795V13.7011H72.0991V18.2795C72.0991 18.6328 72.1641 18.924 72.2943 19.1533C72.4244 19.3826 72.6057 19.5531 72.8381 19.6646C73.0736 19.7762 73.3463 19.832 73.6562 19.832C73.9692 19.832 74.2418 19.7762 74.4742 19.6646C74.7097 19.5531 74.8926 19.3826 75.0227 19.1533C75.1529 18.924 75.2179 18.6328 75.2179 18.2795V13.7011ZM78.2961 16.4063V22.4024H77.4316V15.4395H78.2217L78.2961 16.4063ZM81.6846 17.9123V18.0099C81.6846 18.3756 81.6412 18.7149 81.5544 19.0278C81.4677 19.3377 81.3406 19.6073 81.1733 19.8366C81.009 20.0659 80.8061 20.2441 80.5644 20.3711C80.3227 20.4982 80.0453 20.5617 79.7324 20.5617C79.4132 20.5617 79.1312 20.509 78.8864 20.4037C78.6416 20.2983 78.434 20.1449 78.2636 19.9435C78.0931 19.7421 77.9568 19.5004 77.8545 19.2184C77.7554 18.9364 77.6872 18.6188 77.65 18.2656V17.745C77.6872 17.3731 77.7569 17.04 77.8592 16.7456C77.9614 16.4512 78.0962 16.2002 78.2636 15.9926C78.434 15.7819 78.6401 15.6223 78.8818 15.5139C79.1235 15.4023 79.4023 15.3465 79.7184 15.3465C80.0345 15.3465 80.3149 15.4085 80.5597 15.5325C80.8045 15.6533 81.0106 15.8268 81.1779 16.0531C81.3453 16.2793 81.4707 16.5504 81.5544 16.8665C81.6412 17.1794 81.6846 17.5281 81.6846 17.9123ZM80.82 18.0099V17.9123C80.82 17.6613 80.7937 17.4258 80.741 17.2058C80.6883 16.9827 80.6062 16.7875 80.4946 16.6201C80.3862 16.4497 80.2467 16.3164 80.0763 16.2204C79.9059 16.1212 79.7029 16.0716 79.4674 16.0716C79.2505 16.0716 79.0615 16.1088 78.9004 16.1832C78.7423 16.2576 78.6075 16.3583 78.496 16.4853C78.3844 16.6093 78.293 16.7518 78.2217 16.913C78.1536 17.071 78.1024 17.2352 78.0683 17.4057V18.6095C78.1303 18.8264 78.2171 19.0309 78.3286 19.2231C78.4402 19.4121 78.5889 19.5655 78.7749 19.6832C78.9608 19.7979 79.1947 19.8552 79.4767 19.8552C79.7091 19.8552 79.909 19.8072 80.0763 19.7111C80.2467 19.612 80.3862 19.4772 80.4946 19.3067C80.6062 19.1363 80.6883 18.9411 80.741 18.7211C80.7937 18.498 80.82 18.2609 80.82 18.0099ZM84.8417 19.8552C85.0463 19.8552 85.2353 19.8134 85.4088 19.7297C85.5823 19.646 85.7249 19.5314 85.8364 19.3857C85.948 19.237 86.0115 19.0681 86.027 18.8791H86.8451C86.8296 19.1766 86.7289 19.4539 86.5429 19.7111C86.3601 19.9652 86.12 20.1713 85.8225 20.3293C85.525 20.4842 85.1981 20.5617 84.8417 20.5617C84.4637 20.5617 84.1337 20.4951 83.8517 20.3618C83.5728 20.2286 83.3404 20.0458 83.1545 19.8134C82.9717 19.581 82.8338 19.3145 82.7408 19.0139C82.6509 18.7102 82.606 18.3895 82.606 18.0517V17.8565C82.606 17.5188 82.6509 17.1996 82.7408 16.899C82.8338 16.5953 82.9717 16.3273 83.1545 16.0949C83.3404 15.8625 83.5728 15.6797 83.8517 15.5464C84.1337 15.4132 84.4637 15.3465 84.8417 15.3465C85.2353 15.3465 85.5792 15.4271 85.8736 15.5882C86.168 15.7463 86.3988 15.9632 86.5662 16.239C86.7366 16.5117 86.8296 16.8215 86.8451 17.1686H86.027C86.0115 16.961 85.9526 16.7735 85.8504 16.6062C85.7512 16.4388 85.6149 16.3056 85.4413 16.2064C85.2709 16.1042 85.071 16.0531 84.8417 16.0531C84.5783 16.0531 84.3568 16.1057 84.1771 16.2111C84.0004 16.3134 83.8594 16.4528 83.7541 16.6294C83.6518 16.8029 83.5775 16.9966 83.531 17.2104C83.4876 17.4211 83.4659 17.6365 83.4659 17.8565V18.0517C83.4659 18.2717 83.4876 18.4887 83.531 18.7025C83.5744 18.9163 83.6472 19.11 83.7494 19.2835C83.8548 19.457 83.9958 19.5965 84.1724 19.7018C84.3521 19.8041 84.5752 19.8552 84.8417 19.8552ZM87.6317 18.0099V17.903C87.6317 17.5404 87.6844 17.2042 87.7897 16.8944C87.8951 16.5814 88.0469 16.3103 88.2453 16.0809C88.4436 15.8485 88.6837 15.6688 88.9657 15.5418C89.2477 15.4116 89.5638 15.3465 89.9139 15.3465C90.2672 15.3465 90.5848 15.4116 90.8668 15.5418C91.1519 15.6688 91.3936 15.8485 91.5919 16.0809C91.7933 16.3103 91.9467 16.5814 92.0521 16.8944C92.1574 17.2042 92.2101 17.5404 92.2101 17.903V18.0099C92.2101 18.3725 92.1574 18.7087 92.0521 19.0185C91.9467 19.3284 91.7933 19.5996 91.5919 19.832C91.3936 20.0613 91.1534 20.241 90.8714 20.3711C90.5925 20.4982 90.2765 20.5617 89.9232 20.5617C89.57 20.5617 89.2523 20.4982 88.9704 20.3711C88.6884 20.241 88.4467 20.0613 88.2453 19.832C88.0469 19.5996 87.8951 19.3284 87.7897 19.0185C87.6844 18.7087 87.6317 18.3725 87.6317 18.0099ZM88.4916 17.903V18.0099C88.4916 18.2609 88.521 18.498 88.5799 18.7211C88.6388 18.9411 88.7271 19.1363 88.8449 19.3067C88.9657 19.4772 89.116 19.612 89.2957 19.7111C89.4755 19.8072 89.6846 19.8552 89.9232 19.8552C90.1587 19.8552 90.3648 19.8072 90.5414 19.7111C90.7211 19.612 90.8699 19.4772 90.9876 19.3067C91.1054 19.1363 91.1937 18.9411 91.2526 18.7211C91.3146 18.498 91.3455 18.2609 91.3455 18.0099V17.903C91.3455 17.6551 91.3146 17.4211 91.2526 17.2011C91.1937 16.978 91.1038 16.7813 90.983 16.6108C90.8652 16.4373 90.7165 16.301 90.5368 16.2018C90.3601 16.1026 90.1525 16.0531 89.9139 16.0531C89.6784 16.0531 89.4708 16.1026 89.2911 16.2018C89.1145 16.301 88.9657 16.4373 88.8449 16.6108C88.7271 16.7813 88.6388 16.978 88.5799 17.2011C88.521 17.4211 88.4916 17.6551 88.4916 17.903ZM94.1913 16.4388V20.4688H93.3267V15.4395H94.1448L94.1913 16.4388ZM94.0147 17.7636L93.6149 17.7496C93.618 17.4057 93.663 17.088 93.7497 16.7968C93.8365 16.5024 93.9651 16.2467 94.1355 16.0298C94.3059 15.8129 94.5182 15.6456 94.7723 15.5278C95.0264 15.407 95.3208 15.3465 95.6554 15.3465C95.8909 15.3465 96.1079 15.3806 96.3062 15.4488C96.5045 15.5139 96.6765 15.6177 96.8221 15.7602C96.9678 15.9028 97.0809 16.0856 97.1614 16.3087C97.242 16.5318 97.2823 16.8014 97.2823 17.1175V20.4688H96.4224V17.1593C96.4224 16.8959 96.3774 16.6852 96.2876 16.5272C96.2008 16.3691 96.0769 16.2545 95.9157 16.1832C95.7546 16.1088 95.5656 16.0716 95.3487 16.0716C95.0946 16.0716 94.8823 16.1166 94.7119 16.2064C94.5414 16.2963 94.4051 16.4203 94.3028 16.5783C94.2006 16.7363 94.1262 16.9176 94.0797 17.1221C94.0364 17.3235 94.0147 17.5373 94.0147 17.7636ZM97.273 17.2895L96.6966 17.4661C96.6997 17.1903 96.7446 16.9253 96.8314 16.6713C96.9213 16.4172 97.0499 16.191 97.2172 15.9926C97.3876 15.7943 97.5968 15.6378 97.8447 15.5232C98.0926 15.4054 98.3761 15.3465 98.6953 15.3465C98.9649 15.3465 99.2035 15.3822 99.4111 15.4535C99.6218 15.5247 99.7984 15.6347 99.941 15.7835C100.087 15.9291 100.197 16.1166 100.271 16.3459C100.345 16.5752 100.383 16.8479 100.383 17.164V20.4688H99.518V17.1547C99.518 16.8727 99.4731 16.6542 99.3832 16.4993C99.2965 16.3412 99.1725 16.2312 99.0114 16.1693C98.8533 16.1042 98.6643 16.0716 98.4443 16.0716C98.2553 16.0716 98.0879 16.1042 97.9423 16.1693C97.7967 16.2343 97.6743 16.3242 97.5751 16.4388C97.4759 16.5504 97.4 16.679 97.3474 16.8246C97.2978 16.9703 97.273 17.1252 97.273 17.2895ZM102.666 15.4395V20.4688H101.801V15.4395H102.666ZM101.736 14.1055C101.736 13.9661 101.778 13.8483 101.862 13.7522C101.949 13.6562 102.076 13.6082 102.243 13.6082C102.407 13.6082 102.533 13.6562 102.619 13.7522C102.709 13.8483 102.754 13.9661 102.754 14.1055C102.754 14.2387 102.709 14.3534 102.619 14.4495C102.533 14.5424 102.407 14.5889 102.243 14.5889C102.076 14.5889 101.949 14.5424 101.862 14.4495C101.778 14.3534 101.736 14.2387 101.736 14.1055ZM104.954 16.5132V20.4688H104.094V15.4395H104.907L104.954 16.5132ZM104.749 17.7636L104.391 17.7496C104.395 17.4057 104.446 17.088 104.545 16.7968C104.644 16.5024 104.783 16.2467 104.963 16.0298C105.143 15.8129 105.357 15.6456 105.605 15.5278C105.856 15.407 106.133 15.3465 106.437 15.3465C106.685 15.3465 106.908 15.3806 107.106 15.4488C107.304 15.5139 107.473 15.6192 107.613 15.7649C107.755 15.9105 107.864 16.0995 107.938 16.3319C108.012 16.5612 108.05 16.8417 108.05 17.1732V20.4688H107.185V17.164C107.185 16.9006 107.146 16.6898 107.069 16.5318C106.991 16.3707 106.878 16.2545 106.729 16.1832C106.581 16.1088 106.398 16.0716 106.181 16.0716C105.967 16.0716 105.772 16.1166 105.595 16.2064C105.422 16.2963 105.271 16.4203 105.144 16.5783C105.02 16.7363 104.923 16.9176 104.852 17.1221C104.783 17.3235 104.749 17.5373 104.749 17.7636ZM112.662 15.4395H113.442V20.3618C113.442 20.805 113.353 21.183 113.173 21.496C112.993 21.809 112.742 22.046 112.42 22.2071C112.101 22.3714 111.732 22.4535 111.314 22.4535C111.14 22.4535 110.936 22.4256 110.7 22.3698C110.468 22.3171 110.238 22.2257 110.012 22.0956C109.789 21.9685 109.602 21.7966 109.45 21.5796L109.901 21.0684C110.111 21.3225 110.331 21.4991 110.561 21.5982C110.793 21.6974 111.022 21.747 111.249 21.747C111.521 21.747 111.757 21.6958 111.955 21.5936C112.153 21.4913 112.307 21.3395 112.415 21.1381C112.527 20.9398 112.583 20.695 112.583 20.4037V16.5458L112.662 15.4395ZM109.199 18.0099V17.9123C109.199 17.5281 109.244 17.1794 109.333 16.8665C109.426 16.5504 109.558 16.2793 109.729 16.0531C109.902 15.8268 110.111 15.6533 110.356 15.5325C110.601 15.4085 110.877 15.3465 111.183 15.3465C111.5 15.3465 111.775 15.4023 112.011 15.5139C112.249 15.6223 112.451 15.7819 112.615 15.9926C112.782 16.2002 112.914 16.4512 113.01 16.7456C113.106 17.04 113.173 17.3731 113.21 17.745V18.1726C113.176 18.5413 113.109 18.8729 113.01 19.1673C112.914 19.4617 112.782 19.7127 112.615 19.9203C112.451 20.1279 112.249 20.2875 112.011 20.399C111.772 20.5075 111.493 20.5617 111.174 20.5617C110.874 20.5617 110.601 20.4982 110.356 20.3711C110.114 20.2441 109.907 20.0659 109.733 19.8366C109.56 19.6073 109.426 19.3377 109.333 19.0278C109.244 18.7149 109.199 18.3756 109.199 18.0099ZM110.059 17.9123V18.0099C110.059 18.2609 110.083 18.4964 110.133 18.7164C110.186 18.9364 110.265 19.1301 110.37 19.2974C110.478 19.4648 110.616 19.5965 110.784 19.6925C110.951 19.7855 111.151 19.832 111.383 19.832C111.668 19.832 111.904 19.7715 112.09 19.6507C112.276 19.5298 112.423 19.3702 112.531 19.1719C112.643 18.9736 112.73 18.7582 112.792 18.5258V17.4057C112.758 17.2352 112.705 17.071 112.634 16.913C112.565 16.7518 112.476 16.6093 112.364 16.4853C112.256 16.3583 112.121 16.2576 111.96 16.1832C111.799 16.1088 111.61 16.0716 111.393 16.0716C111.157 16.0716 110.954 16.1212 110.784 16.2204C110.616 16.3164 110.478 16.4497 110.37 16.6201C110.265 16.7875 110.186 16.9827 110.133 17.2058C110.083 17.4258 110.059 17.6613 110.059 17.9123ZM116.977 18.0099V17.903C116.977 17.5404 117.03 17.2042 117.135 16.8944C117.241 16.5814 117.392 16.3103 117.591 16.0809C117.789 15.8485 118.029 15.6688 118.311 15.5418C118.593 15.4116 118.909 15.3465 119.259 15.3465C119.613 15.3465 119.93 15.4116 120.212 15.5418C120.497 15.6688 120.739 15.8485 120.937 16.0809C121.139 16.3103 121.292 16.5814 121.398 16.8944C121.503 17.2042 121.556 17.5404 121.556 17.903V18.0099C121.556 18.3725 121.503 18.7087 121.398 19.0185C121.292 19.3284 121.139 19.5996 120.937 19.832C120.739 20.0613 120.499 20.241 120.217 20.3711C119.938 20.4982 119.622 20.5617 119.269 20.5617C118.915 20.5617 118.598 20.4982 118.316 20.3711C118.034 20.241 117.792 20.0613 117.591 19.832C117.392 19.5996 117.241 19.3284 117.135 19.0185C117.03 18.7087 116.977 18.3725 116.977 18.0099ZM117.837 17.903V18.0099C117.837 18.2609 117.867 18.498 117.925 18.7211C117.984 18.9411 118.073 19.1363 118.19 19.3067C118.311 19.4772 118.461 19.612 118.641 19.7111C118.821 19.8072 119.03 19.8552 119.269 19.8552C119.504 19.8552 119.71 19.8072 119.887 19.7111C120.067 19.612 120.215 19.4772 120.333 19.3067C120.451 19.1363 120.539 18.9411 120.598 18.7211C120.66 18.498 120.691 18.2609 120.691 18.0099V17.903C120.691 17.6551 120.66 17.4211 120.598 17.2011C120.539 16.978 120.449 16.7813 120.328 16.6108C120.211 16.4373 120.062 16.301 119.882 16.2018C119.706 16.1026 119.498 16.0531 119.259 16.0531C119.024 16.0531 118.816 16.1026 118.637 16.2018C118.46 16.301 118.311 16.4373 118.19 16.6108C118.073 16.7813 117.984 16.978 117.925 17.2011C117.867 17.4211 117.837 17.6551 117.837 17.903ZM123.541 16.5132V20.4688H122.682V15.4395H123.495L123.541 16.5132ZM123.337 17.7636L122.979 17.7496C122.982 17.4057 123.033 17.088 123.132 16.7968C123.232 16.5024 123.371 16.2467 123.551 16.0298C123.73 15.8129 123.944 15.6456 124.192 15.5278C124.443 15.407 124.72 15.3465 125.024 15.3465C125.272 15.3465 125.495 15.3806 125.693 15.4488C125.892 15.5139 126.061 15.6192 126.2 15.7649C126.343 15.9105 126.451 16.0995 126.526 16.3319C126.6 16.5612 126.637 16.8417 126.637 17.1732V20.4688H125.773V17.164C125.773 16.9006 125.734 16.6898 125.656 16.5318C125.579 16.3707 125.466 16.2545 125.317 16.1832C125.168 16.1088 124.985 16.0716 124.769 16.0716C124.555 16.0716 124.359 16.1166 124.183 16.2064C124.009 16.2963 123.859 16.4203 123.732 16.5783C123.608 16.7363 123.51 16.9176 123.439 17.1221C123.371 17.3235 123.337 17.5373 123.337 17.7636ZM132.505 15.4395V16.0995H129.786V15.4395H132.505ZM130.706 14.2171H131.566V19.2231C131.566 19.3935 131.593 19.5221 131.645 19.6089C131.698 19.6956 131.766 19.7529 131.85 19.7808C131.933 19.8087 132.023 19.8227 132.119 19.8227C132.191 19.8227 132.265 19.8165 132.343 19.8041C132.423 19.7886 132.484 19.7762 132.524 19.7669L132.528 20.4688C132.46 20.4904 132.37 20.5106 132.259 20.5292C132.15 20.5509 132.019 20.5617 131.864 20.5617C131.653 20.5617 131.459 20.5199 131.283 20.4362C131.106 20.3525 130.965 20.2131 130.86 20.0179C130.758 19.8196 130.706 19.5531 130.706 19.2184V14.2171ZM134.421 13.3293V20.4688H133.561V13.3293H134.421ZM134.217 17.7636L133.859 17.7496C133.862 17.4057 133.913 17.088 134.012 16.7968C134.111 16.5024 134.251 16.2467 134.431 16.0298C134.61 15.8129 134.824 15.6456 135.072 15.5278C135.323 15.407 135.6 15.3465 135.904 15.3465C136.152 15.3465 136.375 15.3806 136.573 15.4488C136.772 15.5139 136.941 15.6192 137.08 15.7649C137.223 15.9105 137.331 16.0995 137.405 16.3319C137.48 16.5612 137.517 16.8417 137.517 17.1732V20.4688H136.652V17.164C136.652 16.9006 136.614 16.6898 136.536 16.5318C136.459 16.3707 136.346 16.2545 136.197 16.1832C136.048 16.1088 135.865 16.0716 135.648 16.0716C135.435 16.0716 135.239 16.1166 135.063 16.2064C134.889 16.2963 134.739 16.4203 134.612 16.5783C134.488 16.7363 134.39 16.9176 134.319 17.1221C134.251 17.3235 134.217 17.5373 134.217 17.7636ZM140.939 20.5617C140.589 20.5617 140.271 20.5028 139.986 20.3851C139.704 20.2642 139.461 20.0954 139.256 19.8784C139.055 19.6615 138.9 19.4043 138.792 19.1069C138.683 18.8094 138.629 18.484 138.629 18.1308V17.9355C138.629 17.5265 138.689 17.1624 138.81 16.8432C138.931 16.521 139.095 16.2483 139.303 16.0252C139.511 15.8021 139.746 15.6332 140.009 15.5185C140.273 15.4039 140.546 15.3465 140.828 15.3465C141.187 15.3465 141.497 15.4085 141.757 15.5325C142.021 15.6564 142.236 15.8299 142.403 16.0531C142.571 16.2731 142.695 16.5334 142.775 16.8339C142.856 17.1314 142.896 17.4568 142.896 17.81V18.1958H139.14V17.494H142.036V17.4289C142.024 17.2058 141.977 16.9889 141.897 16.7782C141.819 16.5674 141.695 16.3939 141.525 16.2576C141.354 16.1212 141.122 16.0531 140.828 16.0531C140.632 16.0531 140.453 16.0949 140.288 16.1786C140.124 16.2591 139.983 16.38 139.865 16.5411C139.748 16.7022 139.656 16.899 139.591 17.1314C139.526 17.3638 139.494 17.6319 139.494 17.9355V18.1308C139.494 18.3694 139.526 18.594 139.591 18.8047C139.659 19.0123 139.757 19.1952 139.884 19.3532C140.014 19.5112 140.171 19.6352 140.353 19.7251C140.539 19.8149 140.75 19.8598 140.986 19.8598C141.289 19.8598 141.546 19.7979 141.757 19.6739C141.968 19.55 142.152 19.3842 142.31 19.1766L142.831 19.5903C142.722 19.7545 142.585 19.911 142.417 20.0597C142.25 20.2085 142.044 20.3293 141.799 20.4223C141.557 20.5152 141.271 20.5617 140.939 20.5617Z" fill="#181B2E"/>
<path d="M75.4471 27.1735H77.1765L82.0154 38.4062H79.7308L78.6837 35.836H73.813L72.7976 38.4062H70.5605L75.4471 27.1735ZM77.9856 34.1226L76.2563 29.5533L74.4952 34.1226H77.9856ZM83.2479 30.7908H85.0565V31.9331H85.0883C85.3633 31.4677 85.7335 31.1293 86.1989 30.9177C86.6642 30.7062 87.1667 30.6004 87.7061 30.6004C88.2878 30.6004 88.8114 30.7062 89.2768 30.9177C89.7422 31.1187 90.1388 31.399 90.4667 31.7586C90.7946 32.1182 91.0431 32.5413 91.2124 33.0278C91.3816 33.5144 91.4662 34.0379 91.4662 34.5985C91.4662 35.1591 91.3763 35.6827 91.1965 36.1692C91.0167 36.6558 90.7628 37.0788 90.4349 37.4385C90.1176 37.7981 89.7316 38.0837 89.2768 38.2952C88.822 38.4962 88.3248 38.5966 87.7854 38.5966C87.4258 38.5966 87.1085 38.5596 86.8335 38.4856C86.5585 38.4115 86.3152 38.3163 86.1037 38.2C85.8921 38.0837 85.7123 37.962 85.5642 37.8351C85.4162 37.6976 85.2945 37.5654 85.1993 37.4385H85.1517V42.0236H83.2479V30.7908ZM89.5623 34.5985C89.5623 34.3024 89.5095 34.0168 89.4037 33.7418C89.3085 33.4668 89.1604 33.2235 88.9595 33.012C88.7691 32.8004 88.5364 32.6312 88.2614 32.5043C87.9864 32.3774 87.6743 32.3139 87.3253 32.3139C86.9763 32.3139 86.6642 32.3774 86.3892 32.5043C86.1142 32.6312 85.8763 32.8004 85.6753 33.012C85.4849 33.2235 85.3368 33.4668 85.2311 33.7418C85.1359 34.0168 85.0883 34.3024 85.0883 34.5985C85.0883 34.8947 85.1359 35.1803 85.2311 35.4553C85.3368 35.7303 85.4849 35.9735 85.6753 36.1851C85.8763 36.3966 86.1142 36.5659 86.3892 36.6928C86.6642 36.8197 86.9763 36.8832 87.3253 36.8832C87.6743 36.8832 87.9864 36.8197 88.2614 36.6928C88.5364 36.5659 88.7691 36.3966 88.9595 36.1851C89.1604 35.9735 89.3085 35.7303 89.4037 35.4553C89.5095 35.1803 89.5623 34.8947 89.5623 34.5985ZM93.3999 30.7908H95.2086V31.9331H95.2403C95.5153 31.4677 95.8855 31.1293 96.3509 30.9177C96.8163 30.7062 97.3187 30.6004 97.8581 30.6004C98.4399 30.6004 98.9634 30.7062 99.4288 30.9177C99.8942 31.1187 100.291 31.399 100.619 31.7586C100.947 32.1182 101.195 32.5413 101.364 33.0278C101.534 33.5144 101.618 34.0379 101.618 34.5985C101.618 35.1591 101.528 35.6827 101.349 36.1692C101.169 36.6558 100.915 37.0788 100.587 37.4385C100.27 37.7981 99.8836 38.0837 99.4288 38.2952C98.974 38.4962 98.4769 38.5966 97.9375 38.5966C97.5779 38.5966 97.2605 38.5596 96.9855 38.4856C96.7105 38.4115 96.4673 38.3163 96.2557 38.2C96.0442 38.0837 95.8644 37.962 95.7163 37.8351C95.5682 37.6976 95.4466 37.5654 95.3514 37.4385H95.3038V42.0236H93.3999V30.7908ZM99.7144 34.5985C99.7144 34.3024 99.6615 34.0168 99.5558 33.7418C99.4606 33.4668 99.3125 33.2235 99.1115 33.012C98.9211 32.8004 98.6884 32.6312 98.4134 32.5043C98.1384 32.3774 97.8264 32.3139 97.4774 32.3139C97.1283 32.3139 96.8163 32.3774 96.5413 32.5043C96.2663 32.6312 96.0283 32.8004 95.8274 33.012C95.637 33.2235 95.4889 33.4668 95.3831 33.7418C95.2879 34.0168 95.2403 34.3024 95.2403 34.5985C95.2403 34.8947 95.2879 35.1803 95.3831 35.4553C95.4889 35.7303 95.637 35.9735 95.8274 36.1851C96.0283 36.3966 96.2663 36.5659 96.5413 36.6928C96.8163 36.8197 97.1283 36.8832 97.4774 36.8832C97.8264 36.8832 98.1384 36.8197 98.4134 36.6928C98.6884 36.5659 98.9211 36.3966 99.1115 36.1851C99.3125 35.9735 99.4606 35.7303 99.5558 35.4553C99.6615 35.1803 99.7144 34.8947 99.7144 34.5985ZM114.085 29.585C113.874 29.2783 113.588 29.0562 113.228 28.9187C112.879 28.7706 112.509 28.6966 112.118 28.6966C111.885 28.6966 111.658 28.723 111.436 28.7759C111.224 28.8288 111.028 28.9134 110.849 29.0297C110.679 29.1461 110.542 29.2994 110.436 29.4898C110.33 29.6696 110.277 29.8865 110.277 30.1403C110.277 30.5211 110.41 30.812 110.674 31.0129C110.938 31.2139 111.266 31.3884 111.658 31.5365C112.049 31.6846 112.477 31.8274 112.943 31.9649C113.408 32.1024 113.837 32.2927 114.228 32.536C114.619 32.7793 114.947 33.1019 115.212 33.5038C115.476 33.9057 115.608 34.4399 115.608 35.1062C115.608 35.7091 115.497 36.238 115.275 36.6928C115.053 37.137 114.751 37.5072 114.371 37.8034C114 38.0995 113.567 38.3216 113.07 38.4697C112.573 38.6178 112.049 38.6918 111.499 38.6918C110.801 38.6918 110.129 38.5755 109.484 38.3428C108.839 38.1101 108.284 37.7187 107.818 37.1687L109.325 35.7091C109.569 36.0793 109.886 36.3702 110.277 36.5817C110.679 36.7827 111.102 36.8832 111.547 36.8832C111.779 36.8832 112.012 36.8514 112.245 36.788C112.477 36.7245 112.689 36.6293 112.879 36.5024C113.07 36.3755 113.223 36.2168 113.339 36.0264C113.456 35.8255 113.514 35.5981 113.514 35.3442C113.514 34.9317 113.382 34.6144 113.117 34.3923C112.853 34.1702 112.525 33.9851 112.134 33.837C111.742 33.6783 111.314 33.5303 110.849 33.3927C110.383 33.2552 109.955 33.0702 109.563 32.8375C109.172 32.5942 108.844 32.2769 108.58 31.8855C108.315 31.4836 108.183 30.9495 108.183 30.2831C108.183 29.7014 108.299 29.199 108.532 28.7759C108.775 28.3528 109.087 28.0038 109.468 27.7288C109.86 27.4432 110.304 27.2316 110.801 27.0941C111.298 26.9566 111.806 26.8879 112.324 26.8879C112.916 26.8879 113.487 26.9778 114.037 27.1576C114.598 27.3374 115.1 27.6336 115.545 28.0461L114.085 29.585ZM116.786 32.4091V30.7908H118.356V28.5855H120.26V30.7908H122.354V32.4091H120.26V35.7408C120.26 36.1216 120.329 36.4231 120.466 36.6452C120.615 36.8673 120.9 36.9784 121.323 36.9784C121.492 36.9784 121.678 36.9625 121.879 36.9308C122.079 36.8884 122.238 36.825 122.354 36.7404V38.3428C122.154 38.438 121.905 38.5014 121.609 38.5332C121.323 38.5755 121.069 38.5966 120.847 38.5966C120.34 38.5966 119.922 38.5385 119.594 38.4221C119.277 38.3163 119.023 38.1524 118.832 37.9303C118.653 37.6976 118.526 37.412 118.452 37.0735C118.388 36.7351 118.356 36.3437 118.356 35.8995V32.4091H116.786ZM123.619 34.5985C123.619 33.9956 123.724 33.4509 123.936 32.9644C124.158 32.4673 124.454 32.0442 124.824 31.6951C125.195 31.3461 125.633 31.0764 126.141 30.886C126.649 30.6956 127.188 30.6004 127.759 30.6004C128.331 30.6004 128.87 30.6956 129.378 30.886C129.885 31.0764 130.324 31.3461 130.695 31.6951C131.065 32.0442 131.356 32.4673 131.567 32.9644C131.789 33.4509 131.9 33.9956 131.9 34.5985C131.9 35.2014 131.789 35.7514 131.567 36.2485C131.356 36.7351 131.065 37.1529 130.695 37.5019C130.324 37.851 129.885 38.1207 129.378 38.3111C128.87 38.5014 128.331 38.5966 127.759 38.5966C127.188 38.5966 126.649 38.5014 126.141 38.3111C125.633 38.1207 125.195 37.851 124.824 37.5019C124.454 37.1529 124.158 36.7351 123.936 36.2485C123.724 35.7514 123.619 35.2014 123.619 34.5985ZM125.522 34.5985C125.522 34.8947 125.57 35.1803 125.665 35.4553C125.771 35.7303 125.919 35.9735 126.109 36.1851C126.31 36.3966 126.548 36.5659 126.823 36.6928C127.098 36.8197 127.41 36.8832 127.759 36.8832C128.108 36.8832 128.42 36.8197 128.695 36.6928C128.97 36.5659 129.203 36.3966 129.394 36.1851C129.595 35.9735 129.743 35.7303 129.838 35.4553C129.944 35.1803 129.996 34.8947 129.996 34.5985C129.996 34.3024 129.944 34.0168 129.838 33.7418C129.743 33.4668 129.595 33.2235 129.394 33.012C129.203 32.8004 128.97 32.6312 128.695 32.5043C128.42 32.3774 128.108 32.3139 127.759 32.3139C127.41 32.3139 127.098 32.3774 126.823 32.5043C126.548 32.6312 126.31 32.8004 126.109 33.012C125.919 33.2235 125.771 33.4668 125.665 33.7418C125.57 34.0168 125.522 34.3024 125.522 34.5985ZM133.841 30.7908H135.745V31.9966H135.777C135.989 31.5523 136.29 31.2086 136.681 30.9653C137.073 30.7221 137.522 30.6004 138.03 30.6004C138.146 30.6004 138.257 30.611 138.363 30.6322C138.48 30.6533 138.596 30.6797 138.712 30.7115V32.5519C138.554 32.5096 138.395 32.4778 138.236 32.4567C138.088 32.425 137.94 32.4091 137.792 32.4091C137.348 32.4091 136.988 32.4937 136.713 32.6629C136.449 32.8216 136.242 33.0067 136.094 33.2182C135.957 33.4298 135.862 33.6413 135.809 33.8528C135.767 34.0644 135.745 34.223 135.745 34.3288V38.4062H133.841V30.7908ZM141.411 35.2649C141.474 35.836 141.696 36.2803 142.077 36.5976C142.458 36.9149 142.918 37.0735 143.457 37.0735C143.933 37.0735 144.33 36.9784 144.647 36.788C144.975 36.587 145.261 36.3384 145.504 36.0423L146.869 37.0735C146.424 37.6236 145.927 38.0149 145.377 38.2476C144.827 38.4803 144.251 38.5966 143.648 38.5966C143.077 38.5966 142.537 38.5014 142.03 38.3111C141.522 38.1207 141.083 37.851 140.713 37.5019C140.343 37.1529 140.046 36.7351 139.824 36.2485C139.613 35.7514 139.507 35.2014 139.507 34.5985C139.507 33.9956 139.613 33.4509 139.824 32.9644C140.046 32.4673 140.343 32.0442 140.713 31.6951C141.083 31.3461 141.522 31.0764 142.03 30.886C142.537 30.6956 143.077 30.6004 143.648 30.6004C144.177 30.6004 144.658 30.6956 145.092 30.886C145.536 31.0658 145.911 31.3302 146.218 31.6793C146.535 32.0283 146.779 32.462 146.948 32.9802C147.128 33.4879 147.218 34.075 147.218 34.7413V35.2649H141.411ZM145.314 33.837C145.303 33.2764 145.129 32.8375 144.79 32.5201C144.452 32.1923 143.981 32.0283 143.378 32.0283C142.807 32.0283 142.352 32.1923 142.014 32.5201C141.686 32.848 141.485 33.287 141.411 33.837H145.314Z" fill="#181B2E"/>
<defs>
<filter id="filter0_b_284_835" x="-28.731" y="-28.731" width="248.615" height="113.534" filterUnits="userSpaceOnUse" color-interpolation-filters="sRGB">
<feFlood flood-opacity="0" result="BackgroundImageFix"/>
<feGaussianBlur in="BackgroundImageFix" stdDeviation="14.3655"/>
<feComposite in2="SourceAlpha" operator="in" result="effect1_backgroundBlur_284_835"/>
<feBlend mode="normal" in="SourceGraphic" in2="effect1_backgroundBlur_284_835" result="shape"/>
</filter>
</defs>
</svg>
