<svg width="62" height="56" viewBox="0 0 62 56" fill="none" xmlns="http://www.w3.org/2000/svg">
<path d="M1.81723 54.4874H5.44974C6.45279 54.4874 7.26599 53.6742 7.26599 52.6712V32.6924H1.81723C0.814173 32.6924 0.000976562 33.5056 0.000976562 34.5086V52.6712C0.000976562 53.6741 0.814173 54.4874 1.81723 54.4874Z" fill="url(#paint0_linear_318_318)"/>
<path d="M47.4656 0C39.4408 0 32.9355 6.50521 32.9355 14.53C32.9355 22.5546 39.4408 29.06 47.4656 29.06C55.4904 29.06 61.9956 22.5546 61.9956 14.53C61.9956 6.50521 55.4904 0 47.4656 0ZM50.5094 21.0668C50.116 21.2635 49.7036 21.4183 49.2816 21.5356V22.0374C49.2816 23.0405 48.4684 23.8537 47.4653 23.8537C46.4623 23.8537 45.6491 23.0405 45.6491 22.0374V21.5923C44.893 21.402 44.188 21.082 43.5907 20.6341C42.7882 20.0323 42.6255 18.8939 43.2274 18.0913C43.8293 17.289 44.9677 17.1262 45.7702 17.7281C46.4967 18.273 47.894 18.3134 48.8848 17.8179C49.283 17.6187 49.498 17.379 49.498 17.2546C49.498 17.0373 49.498 17.0038 49.2563 16.8748C48.7824 16.6219 47.9445 16.4664 47.134 16.3161C46.0522 16.1154 44.9335 15.9078 43.9641 15.3904C42.5485 14.6349 41.8002 13.3953 41.8002 11.8059C41.8002 10.2146 42.7545 8.82481 44.4183 7.99296C44.8126 7.79572 45.226 7.63964 45.6491 7.52231V7.02309C45.6491 6.02003 46.4623 5.20683 47.4653 5.20683C48.4684 5.20683 49.2816 6.02003 49.2816 7.02309V7.46783C50.0377 7.65829 50.7427 7.97856 51.34 8.42644C52.1425 9.02835 52.3052 10.1668 51.7032 10.9692C51.1013 11.7716 49.9632 11.9344 49.1605 11.3324C48.4329 10.7867 47.0344 10.7463 46.0427 11.2419C45.6422 11.4422 45.4327 11.6772 45.4327 11.8058C45.4327 12.0232 45.4327 12.0566 45.6744 12.1857C46.1483 12.4387 46.9863 12.5941 47.7966 12.7444C48.8785 12.9452 49.9972 13.1527 50.9667 13.6701C52.3822 14.4256 53.1305 15.6652 53.1305 17.2546C53.1306 18.8443 52.1751 20.2339 50.5094 21.0668Z" fill="url(#paint1_linear_318_318)"/>
<path d="M32.7905 55.4555H33.19C39.2926 55.3828 45.1409 53.6515 50.2993 50.5273L60.4338 43.4441C62.141 42.2452 62.468 39.9932 61.342 38.3949C60.1796 36.7238 57.9274 36.3243 56.2928 37.4867L46.5577 44.3159C43.4337 46.1321 39.6197 46.5317 36.1687 45.3692L24.9685 41.6639C24.024 41.3734 23.5153 40.3199 23.8424 39.3756C24.1329 38.4675 25.0773 37.959 26.0218 38.2132C26.0581 38.2132 38.6023 42.2817 38.6023 42.2817C40.7148 42.9148 42.5916 41.7196 43.1793 39.9568C43.7967 38.0315 42.7434 35.9973 40.8545 35.3799L23.7696 29.7858C20.0327 28.4255 14.997 28.7065 10.8984 30.9984V51.3309L25.15 54.5595C27.7607 55.1338 30.3223 55.4555 32.7905 55.4555Z" fill="url(#paint2_linear_318_318)"/>
<defs>
<linearGradient id="paint0_linear_318_318" x1="3.63348" y1="32.6924" x2="3.63348" y2="54.4874" gradientUnits="userSpaceOnUse">
<stop stop-color="#181B2E"/>
<stop offset="1" stop-color="#4D5794"/>
</linearGradient>
<linearGradient id="paint1_linear_318_318" x1="47.4656" y1="0" x2="47.4656" y2="29.06" gradientUnits="userSpaceOnUse">
<stop stop-color="#181B2E"/>
<stop offset="1" stop-color="#4D5794"/>
</linearGradient>
<linearGradient id="paint2_linear_318_318" x1="36.4496" y1="28.9648" x2="36.4496" y2="55.4555" gradientUnits="userSpaceOnUse">
<stop stop-color="#181B2E"/>
<stop offset="1" stop-color="#4D5794"/>
</linearGradient>
</defs>
</svg>
