<svg width="51" height="51" viewBox="0 0 51 51" fill="none" xmlns="http://www.w3.org/2000/svg">
<path fill-rule="evenodd" clip-rule="evenodd" d="M23.1242 33.2121C23.1242 31.7962 22.5621 30.439 21.5607 29.4393C20.561 28.4379 19.2038 27.8758 17.7879 27.8758C14.2552 27.8758 8.86902 27.8758 5.33636 27.8758C3.92044 27.8758 2.56323 28.4379 1.56355 29.4393C0.562092 30.439 0 31.7962 0 33.2121V45.6636C0 47.0796 0.562092 48.4368 1.56355 49.4365C2.56323 50.4379 3.92044 51 5.33636 51H17.7879C19.2038 51 20.561 50.4379 21.5607 49.4365C22.5621 48.4368 23.1242 47.0796 23.1242 45.6636V33.2121ZM49.806 33.2121C49.806 31.7962 49.2439 30.439 48.2424 29.4393C47.2428 28.4379 45.8855 27.8758 44.4696 27.8758C40.937 27.8758 35.5508 27.8758 32.0181 27.8758C30.6022 27.8758 29.245 28.4379 28.2453 29.4393C27.2439 30.439 26.6818 31.7962 26.6818 33.2121V45.6636C26.6818 47.0796 27.2439 48.4368 28.2453 49.4365C29.245 50.4379 30.6022 51 32.0181 51H44.4696C45.8855 51 47.2428 50.4379 48.2424 49.4365C49.2439 48.4368 49.806 47.0796 49.806 45.6636V33.2121ZM42.0167 23.95L49.4378 16.5289C51.5207 14.446 51.5207 11.0663 49.4378 8.98331L42.0167 1.56222C39.9337 -0.520739 36.554 -0.520739 34.4711 1.56222L27.05 8.98331C24.967 11.0663 24.967 14.446 27.05 16.5289L34.4711 23.95C36.554 26.033 39.9337 26.033 42.0167 23.95ZM23.1242 6.53036C23.1242 5.11445 22.5621 3.75723 21.5607 2.75756C20.561 1.7561 19.2038 1.19401 17.7879 1.19401C14.2552 1.19401 8.86902 1.19401 5.33636 1.19401C3.92044 1.19401 2.56323 1.7561 1.56355 2.75756C0.562092 3.75723 0 5.11445 0 6.53036V18.9819C0 20.3978 0.562092 21.755 1.56355 22.7547C2.56323 23.7561 3.92044 24.3182 5.33636 24.3182H17.7879C19.2038 24.3182 20.561 23.7561 21.5607 22.7547C22.5621 21.755 23.1242 20.3978 23.1242 18.9819V6.53036Z" fill="url(#paint0_linear_318_322)"/>
<defs>
<linearGradient id="paint0_linear_318_322" x1="25.5" y1="0" x2="25.5" y2="51" gradientUnits="userSpaceOnUse">
<stop stop-color="#181B2E"/>
<stop offset="1" stop-color="#4D5794"/>
</linearGradient>
</defs>
</svg>
