<svg width="550" height="129" viewBox="0 0 550 129" fill="none" xmlns="http://www.w3.org/2000/svg">
<path d="M1.60275e-06 110.083C7.17576e-07 120.208 8.20807 128.416 18.3333 128.416L531.667 128.416C541.792 128.416 550 120.208 550 110.083L550 18.4161C550 8.29085 541.792 0.0827324 531.667 0.0827316L316.585 0.0827127C306.918 0.0827119 299.177 8.47279 292.465 15.4287C288.028 20.0268 281.842 22.9994 275 22.9994C268.158 22.9994 261.972 20.0268 257.535 15.4287C250.823 8.47278 243.082 0.0827063 233.415 0.0827055L18.3333 0.0826867C8.20814 0.0826858 1.05017e-05 8.2908 9.6165e-06 18.416L1.60275e-06 110.083Z" fill="#F5F7FF"/>
</svg>
