<svg width="192" height="57" viewBox="0 0 192 57" fill="none" xmlns="http://www.w3.org/2000/svg">
<g filter="url(#filter0_b_629_3)">
<rect width="191.154" height="56.0718" rx="12" fill="#F5F7FF"/>
</g>
<g clip-path="url(#clip0_629_3)">
<path d="M49.2959 23.8756H39.1031C36.825 23.8734 34.9764 25.7183 34.9742 27.9963C34.9735 28.7039 35.1548 29.3998 35.5007 30.017L30.4043 21.2724C34.1163 16.468 41.0202 15.5826 45.8246 19.2946C47.3675 20.4867 48.5656 22.0678 49.2959 23.8756Z" fill="#F44336"/>
<path d="M50.102 27.9998C50.0969 34.0726 45.1752 38.9943 39.1025 38.9993C38.6426 39.001 38.1831 38.9704 37.7275 38.9077L42.6773 30.0622C43.8118 28.0873 43.1355 25.5668 41.1649 24.425C40.541 24.0638 39.8326 23.874 39.1116 23.875H49.2953C49.8306 25.1842 50.1046 26.5854 50.102 27.9998Z" fill="#FFC107"/>
<path d="M42.6778 30.0619L37.728 38.9074H37.7188C31.6954 38.1464 27.4294 32.6464 28.1904 26.623C28.4367 24.6734 29.2012 22.8254 30.4042 21.2715L35.5006 30.0161L35.5281 30.0619C36.6646 32.0363 39.1864 32.7154 41.1607 31.579C41.7914 31.2159 42.3148 30.6926 42.6778 30.0619Z" fill="#4CAF50"/>
<path d="M42.6781 30.0623C41.5416 32.0366 39.0198 32.7158 37.0455 31.5793C36.4148 31.2163 35.8914 30.6929 35.5284 30.0623L35.5009 30.0164C34.3872 28.0292 35.0954 25.5153 37.0826 24.4016C37.6999 24.0556 38.3957 23.8743 39.1033 23.875H39.1124C39.8334 23.874 40.5417 24.0638 41.1657 24.425C43.1363 25.5669 43.8126 28.0873 42.6781 30.0623Z" fill="#F44336"/>
<path d="M42.6781 30.0623C41.5416 32.0366 39.0198 32.7158 37.0455 31.5793C36.4148 31.2163 35.8914 30.6929 35.5284 30.0623L35.5009 30.0164C34.3872 28.0292 35.0954 25.5153 37.0826 24.4016C37.6999 24.0556 38.3957 23.8743 39.1033 23.875H39.1124C39.8334 23.874 40.5417 24.0638 41.1657 24.425C43.1363 25.5669 43.8126 28.0873 42.6781 30.0623Z" fill="#2196F3"/>
<path d="M39.0876 32.5842C38.2885 32.5841 37.5035 32.3735 36.8116 31.9737C36.1139 31.5702 35.5345 30.9905 35.1314 30.2927C33.8658 28.1006 34.6169 25.2976 36.8089 24.032C37.5064 23.6293 38.2977 23.4175 39.1032 23.418C41.6343 23.416 43.6879 25.4664 43.6898 27.9975C43.6905 28.8033 43.4786 29.5949 43.0758 30.2927C42.2498 31.7127 40.7303 32.5858 39.0876 32.5842ZM39.1114 24.3346C37.796 24.3276 36.5782 25.0276 35.9224 26.1678C34.9099 27.9235 35.5124 30.1675 37.268 31.18C39.0236 32.1924 41.2676 31.59 42.2801 29.8344C43.2926 28.0807 42.6917 25.8383 40.9381 24.8258C40.3829 24.5053 39.7533 24.3359 39.1123 24.3346L39.1114 24.3346Z" fill="#FAFAFA"/>
</g>
<path d="M71.3244 15.3365C72.2319 15.3365 72.984 15.6601 73.5805 16.3075C74.1834 16.9484 74.4848 17.7354 74.4848 18.6682C74.4848 19.6011 74.1834 20.3912 73.5805 21.0386C72.984 21.6795 72.2319 22 71.3244 22H68.7257V15.3365H71.3244ZM71.3244 21.1623C72.0035 21.1623 72.5588 20.9243 72.9903 20.4484C73.4219 19.9724 73.6376 19.379 73.6376 18.6682C73.6376 17.9575 73.4219 17.3641 72.9903 16.8881C72.5588 16.4122 72.0035 16.1742 71.3244 16.1742H69.611V21.1623H71.3244ZM79.5374 21.4003C79.0488 21.8826 78.4554 22.1238 77.7573 22.1238C77.0592 22.1238 76.4659 21.8826 75.9772 21.4003C75.4949 20.918 75.2538 20.3246 75.2538 19.6202C75.2538 18.9157 75.4949 18.3224 75.9772 17.8401C76.4659 17.3578 77.0592 17.1166 77.7573 17.1166C78.4554 17.1166 79.0488 17.3578 79.5374 17.8401C80.0261 18.3224 80.2704 18.9157 80.2704 19.6202C80.2704 20.3246 80.0261 20.918 79.5374 21.4003ZM77.7573 21.3146C78.2333 21.3146 78.6331 21.1528 78.9568 20.8291C79.2804 20.5055 79.4422 20.1025 79.4422 19.6202C79.4422 19.1379 79.2804 18.7349 78.9568 18.4112C78.6331 18.0876 78.2333 17.9257 77.7573 17.9257C77.2877 17.9257 76.8911 18.0876 76.5674 18.4112C76.2438 18.7349 76.0819 19.1379 76.0819 19.6202C76.0819 20.1025 76.2438 20.5055 76.5674 20.8291C76.8911 21.1528 77.2877 21.3146 77.7573 21.3146ZM86.7153 17.2403H87.5816L86.1061 22H85.2588L84.1451 18.4779L83.0313 22H82.1841L80.7086 17.2403H81.5749L82.622 20.8577L83.7453 17.2403H84.5449L85.6682 20.8672L86.7153 17.2403ZM90.8517 17.1166C91.4102 17.1166 91.8576 17.2943 92.194 17.6497C92.5303 17.9987 92.6985 18.4747 92.6985 19.0776V22H91.8703V19.1252C91.8703 18.7381 91.7656 18.4398 91.5562 18.2304C91.3467 18.0146 91.058 17.9067 90.6899 17.9067C90.2774 17.9067 89.9442 18.0368 89.6904 18.297C89.4365 18.5508 89.3096 18.9443 89.3096 19.4774V22H88.4814V17.2403H89.3096V17.9257C89.646 17.3863 90.16 17.1166 90.8517 17.1166ZM93.9022 22V15.0509H94.7304V22H93.9022ZM100.059 21.4003C99.57 21.8826 98.9766 22.1238 98.2785 22.1238C97.5804 22.1238 96.987 21.8826 96.4984 21.4003C96.0161 20.918 95.7749 20.3246 95.7749 19.6202C95.7749 18.9157 96.0161 18.3224 96.4984 17.8401C96.987 17.3578 97.5804 17.1166 98.2785 17.1166C98.9766 17.1166 99.57 17.3578 100.059 17.8401C100.547 18.3224 100.792 18.9157 100.792 19.6202C100.792 20.3246 100.547 20.918 100.059 21.4003ZM98.2785 21.3146C98.7545 21.3146 99.1543 21.1528 99.4779 20.8291C99.8016 20.5055 99.9634 20.1025 99.9634 19.6202C99.9634 19.1379 99.8016 18.7349 99.4779 18.4112C99.1543 18.0876 98.7545 17.9257 98.2785 17.9257C97.8089 17.9257 97.4122 18.0876 97.0886 18.4112C96.7649 18.7349 96.6031 19.1379 96.6031 19.6202C96.6031 20.1025 96.7649 20.5055 97.0886 20.8291C97.4122 21.1528 97.8089 21.3146 98.2785 21.3146ZM105.757 17.2403H106.585V22H105.757V21.1813C105.344 21.8096 104.744 22.1238 103.957 22.1238C103.291 22.1238 102.723 21.8826 102.253 21.4003C101.784 20.9116 101.549 20.3183 101.549 19.6202C101.549 18.9221 101.784 18.3319 102.253 17.8496C102.723 17.3609 103.291 17.1166 103.957 17.1166C104.744 17.1166 105.344 17.4307 105.757 18.059V17.2403ZM104.062 21.3241C104.544 21.3241 104.947 21.1623 105.271 20.8386C105.595 20.5086 105.757 20.1025 105.757 19.6202C105.757 19.1379 105.595 18.7349 105.271 18.4112C104.947 18.0812 104.544 17.9162 104.062 17.9162C103.586 17.9162 103.186 18.0812 102.863 18.4112C102.539 18.7349 102.377 19.1379 102.377 19.6202C102.377 20.1025 102.539 20.5086 102.863 20.8386C103.186 21.1623 103.586 21.3241 104.062 21.3241ZM111.828 15.3365H112.656V22H111.828V21.1813C111.416 21.8096 110.816 22.1238 110.029 22.1238C109.363 22.1238 108.795 21.8826 108.325 21.4003C107.855 20.9116 107.621 20.3183 107.621 19.6202C107.621 18.9221 107.855 18.3319 108.325 17.8496C108.795 17.3609 109.363 17.1166 110.029 17.1166C110.816 17.1166 111.416 17.4307 111.828 18.059V15.3365ZM110.134 21.3241C110.616 21.3241 111.019 21.1623 111.343 20.8386C111.666 20.5086 111.828 20.1025 111.828 19.6202C111.828 19.1379 111.666 18.7349 111.343 18.4112C111.019 18.0812 110.616 17.9162 110.134 17.9162C109.658 17.9162 109.258 18.0812 108.934 18.4112C108.611 18.7349 108.449 19.1379 108.449 19.6202C108.449 20.1025 108.611 20.5086 108.934 20.8386C109.258 21.1623 109.658 21.3241 110.134 21.3241Z" fill="#181B2E"/>
<path d="M69.1223 39.4062V27.9831H76.4998V29.7759H71.0341V32.592H75.5478V34.3848H71.0341V37.6134H76.4998V39.4062H69.1223ZM77.6097 39.4062L80.7432 35.075L77.6732 30.8389H79.9261L81.8538 33.5757L83.7497 30.8389H86.0026L82.9326 35.075L86.0819 39.4062H83.829L81.8538 36.5743L79.8626 39.4062H77.6097ZM92.5267 39.4062C91.9608 39.512 91.4055 39.557 90.8608 39.5411C90.3213 39.5305 89.8375 39.4327 89.4091 39.2476C88.9807 39.0572 88.6555 38.7584 88.4334 38.3512C88.2377 37.981 88.1346 37.6029 88.124 37.2168C88.1134 36.8307 88.1081 36.3944 88.1081 35.9079V28.459H90.012V35.7968C90.012 36.1406 90.0146 36.442 90.0199 36.7012C90.0305 36.9603 90.086 37.1719 90.1865 37.3358C90.3769 37.6531 90.681 37.8303 91.0988 37.8673C91.5166 37.9043 91.9925 37.8832 92.5267 37.8038V39.4062ZM86.5533 32.3382V30.8389H92.5267V32.3382H86.5533ZM97.9887 39.6442C97.1214 39.6442 96.3599 39.4565 95.7041 39.081C95.0483 38.7055 94.5353 38.1846 94.1651 37.5183C93.8002 36.8519 93.6178 36.0851 93.6178 35.2178C93.6178 34.2817 93.7976 33.4699 94.1572 32.7824C94.5168 32.0896 95.0166 31.5528 95.6565 31.172C96.2964 30.7913 97.0368 30.6009 97.8777 30.6009C98.7661 30.6009 99.5198 30.8098 100.139 31.2276C100.763 31.6401 101.225 32.2245 101.527 32.9807C101.828 33.737 101.942 34.6281 101.868 35.6541H99.9719V34.956C99.9666 34.0252 99.8027 33.3456 99.4801 32.9173C99.1575 32.4889 98.6498 32.2747 97.957 32.2747C97.1743 32.2747 96.5926 32.518 96.2118 33.0045C95.831 33.4858 95.6406 34.1918 95.6406 35.1226C95.6406 35.9899 95.831 36.6615 96.2118 37.1375C96.5926 37.6134 97.1479 37.8514 97.8777 37.8514C98.3483 37.8514 98.7529 37.7483 99.0914 37.5421C99.4351 37.3305 99.6996 37.0264 99.8847 36.6298L101.773 37.2009C101.445 37.9731 100.937 38.5733 100.25 39.0017C99.5673 39.43 98.8137 39.6442 97.9887 39.6442ZM95.0377 35.6541V34.2103H100.932V35.6541H95.0377ZM109.49 39.4062V35.2812C109.49 35.0115 109.471 34.7127 109.434 34.3848C109.397 34.0569 109.31 33.7423 109.173 33.4408C109.04 33.1341 108.839 32.8829 108.57 32.6872C108.305 32.4915 107.946 32.3937 107.491 32.3937C107.248 32.3937 107.007 32.4334 106.769 32.5127C106.531 32.592 106.314 32.7295 106.118 32.9252C105.928 33.1156 105.775 33.38 105.658 33.7185C105.542 34.0516 105.484 34.48 105.484 35.0036L104.349 34.5197C104.349 33.7899 104.49 33.1288 104.77 32.5365C105.055 31.9442 105.473 31.4735 106.023 31.1245C106.573 30.7701 107.25 30.593 108.054 30.593C108.689 30.593 109.212 30.6987 109.625 30.9103C110.037 31.1218 110.365 31.3915 110.608 31.7194C110.852 32.0473 111.031 32.3963 111.148 32.7665C111.264 33.1367 111.338 33.4884 111.37 33.8216C111.407 34.1495 111.425 34.4165 111.425 34.6228V39.4062H109.49ZM103.548 39.4062V30.8389H105.254V33.4963H105.484V39.4062H103.548ZM116.962 39.6442C115.904 39.6442 115.045 39.4062 114.384 38.9303C113.723 38.4543 113.321 37.7853 113.178 36.9233L115.13 36.6219C115.23 37.0449 115.452 37.3781 115.796 37.6214C116.14 37.8647 116.573 37.9863 117.097 37.9863C117.557 37.9863 117.911 37.8964 118.16 37.7166C118.414 37.5315 118.541 37.2803 118.541 36.963C118.541 36.7673 118.493 36.6113 118.398 36.4949C118.308 36.3733 118.107 36.2569 117.795 36.1459C117.483 36.0348 117.004 35.8947 116.359 35.7255C115.64 35.5351 115.069 35.3315 114.646 35.1146C114.223 34.8925 113.919 34.6307 113.734 34.3293C113.548 34.0278 113.456 33.6629 113.456 33.2346C113.456 32.7004 113.596 32.235 113.876 31.8384C114.157 31.4418 114.548 31.1377 115.05 30.9261C115.553 30.7093 116.145 30.6009 116.827 30.6009C117.494 30.6009 118.083 30.704 118.596 30.9103C119.115 31.1165 119.532 31.41 119.85 31.7908C120.167 32.1716 120.363 32.6185 120.437 33.1314L118.485 33.4805C118.438 33.1156 118.271 32.8274 117.985 32.6158C117.705 32.4043 117.33 32.2853 116.859 32.2588C116.409 32.2324 116.047 32.3011 115.772 32.4651C115.497 32.6237 115.36 32.8485 115.36 33.1394C115.36 33.3033 115.415 33.4435 115.526 33.5598C115.637 33.6762 115.859 33.7925 116.193 33.9089C116.531 34.0252 117.034 34.168 117.7 34.3372C118.382 34.5117 118.927 34.7127 119.334 34.9401C119.747 35.1622 120.043 35.4293 120.223 35.7413C120.408 36.0533 120.5 36.4315 120.5 36.8757C120.5 37.7377 120.185 38.4147 119.556 38.9065C118.932 39.3983 118.067 39.6442 116.962 39.6442ZM122.555 29.5379V27.7848H124.467V29.5379H122.555ZM122.555 39.4062V30.8389H124.467V39.4062H122.555ZM130.786 39.6442C129.929 39.6442 129.181 39.4512 128.541 39.0651C127.901 38.6791 127.404 38.1476 127.049 37.4707C126.7 36.7884 126.526 36.0057 126.526 35.1226C126.526 34.2235 126.706 33.4355 127.065 32.7586C127.425 32.0817 127.925 31.5528 128.564 31.172C129.204 30.7913 129.945 30.6009 130.786 30.6009C131.648 30.6009 132.399 30.7939 133.038 31.18C133.678 31.566 134.176 32.1002 134.53 32.7824C134.884 33.4593 135.061 34.2394 135.061 35.1226C135.061 36.011 134.882 36.7964 134.522 37.4786C134.168 38.1555 133.67 38.687 133.031 39.0731C132.391 39.4538 131.642 39.6442 130.786 39.6442ZM130.786 37.8514C131.547 37.8514 132.113 37.5976 132.483 37.0899C132.853 36.5822 133.038 35.9264 133.038 35.1226C133.038 34.2923 132.851 33.6312 132.475 33.1394C132.1 32.6423 131.537 32.3937 130.786 32.3937C130.273 32.3937 129.85 32.51 129.516 32.7427C129.188 32.9701 128.945 33.2901 128.787 33.7026C128.628 34.1098 128.549 34.5831 128.549 35.1226C128.549 35.9529 128.736 36.6166 129.112 37.1137C129.493 37.6055 130.05 37.8514 130.786 37.8514ZM142.894 39.4062V35.2812C142.894 35.0115 142.875 34.7127 142.838 34.3848C142.801 34.0569 142.714 33.7423 142.576 33.4408C142.444 33.1341 142.243 32.8829 141.973 32.6872C141.709 32.4915 141.349 32.3937 140.895 32.3937C140.651 32.3937 140.411 32.4334 140.173 32.5127C139.935 32.592 139.718 32.7295 139.522 32.9252C139.332 33.1156 139.178 33.38 139.062 33.7185C138.946 34.0516 138.888 34.48 138.888 35.0036L137.753 34.5197C137.753 33.7899 137.893 33.1288 138.174 32.5365C138.459 31.9442 138.877 31.4735 139.427 31.1245C139.977 30.7701 140.654 30.593 141.458 30.593C142.092 30.593 142.616 30.6987 143.028 30.9103C143.441 31.1218 143.769 31.3915 144.012 31.7194C144.255 32.0473 144.435 32.3963 144.552 32.7665C144.668 33.1367 144.742 33.4884 144.774 33.8216C144.811 34.1495 144.829 34.4165 144.829 34.6228V39.4062H142.894ZM136.952 39.4062V30.8389H138.657V33.4963H138.888V39.4062H136.952Z" fill="#181B2E"/>
<defs>
<filter id="filter0_b_629_3" x="-28.731" y="-28.731" width="248.615" height="113.534" filterUnits="userSpaceOnUse" color-interpolation-filters="sRGB">
<feFlood flood-opacity="0" result="BackgroundImageFix"/>
<feGaussianBlur in="BackgroundImageFix" stdDeviation="14.3655"/>
<feComposite in2="SourceAlpha" operator="in" result="effect1_backgroundBlur_629_3"/>
<feBlend mode="normal" in="SourceGraphic" in2="effect1_backgroundBlur_629_3" result="shape"/>
</filter>
<clipPath id="clip0_629_3">
<rect width="22" height="22" fill="white" transform="translate(28.1025 17)"/>
</clipPath>
</defs>
</svg>
