<svg width="16" height="16" viewBox="0 0 16 16" fill="none" xmlns="http://www.w3.org/2000/svg">
<path opacity="0.64" d="M4.23088 0.263608C4.86326 0.46692 5.46486 0.747967 6.02033 1.09958C6.80481 0.909295 7.61145 0.813701 8.42114 0.815061C9.25734 0.815061 10.0641 0.914163 10.8203 1.09878C11.3755 0.747509 11.9768 0.466733 12.6089 0.263608C13.1958 0.0741962 14.032 -0.232699 14.5289 0.289183C14.8657 0.644031 14.9499 1.23864 15.0097 1.69259C15.0771 2.19929 15.0931 2.85943 14.9162 3.51478C15.5924 4.34356 16 5.33218 16 6.40951C16 8.04149 15.0686 9.45849 13.6901 10.4399C13.0267 10.9063 12.2909 11.2719 11.5091 11.5236C11.6893 11.9153 11.7895 12.3484 11.7895 12.8032V15.2008C11.7895 15.4128 11.7008 15.616 11.5429 15.7659C11.385 15.9158 11.1708 16 10.9474 16H5.89486C5.67152 16 5.45733 15.9158 5.29941 15.7659C5.14148 15.616 5.05276 15.4128 5.05276 15.2008V14.4088C4.24856 14.5023 3.57405 14.4192 3.00058 14.1882C2.40101 13.9468 1.98333 13.5728 1.66923 13.2148C1.37112 12.8759 1.04608 12.1119 0.576186 11.9632C0.47124 11.93 0.374205 11.8776 0.290621 11.8088C0.207037 11.7401 0.13854 11.6564 0.0890425 11.5625C-0.010923 11.3729 -0.0274346 11.1534 0.04314 10.9522C0.113715 10.7511 0.265594 10.5847 0.465367 10.4899C0.665141 10.395 0.896443 10.3793 1.10839 10.4463C1.66923 10.6237 2.03469 11.0074 2.2848 11.3158C2.689 11.8114 3.01742 12.4587 3.65741 12.7169C3.92099 12.8232 4.30751 12.8927 4.91213 12.8144L5.05276 12.7872C5.05437 12.3523 5.1498 11.9222 5.33318 11.5236C4.55137 11.2719 3.81557 10.9063 3.15216 10.4399C1.77365 9.45849 0.842288 8.04229 0.842288 6.40951C0.842288 5.33378 1.24902 4.34596 1.92354 3.51798C1.7467 2.86263 1.76186 2.20089 1.82922 1.69339L1.83343 1.66302C1.89491 1.19788 1.96649 0.650425 2.31006 0.289183C2.8069 -0.232699 3.64394 0.0749955 4.23004 0.264408L4.23088 0.263608Z" fill="#5F84F5"/>
</svg>
