<svg width="193" height="57" viewBox="0 0 193 57" fill="none" xmlns="http://www.w3.org/2000/svg">
<g filter="url(#filter0_b_284_843)">
<rect x="0.897461" width="191.154" height="56.0718" rx="12" fill="#F5F7FF"/>
</g>
<path d="M49.0006 26.5751C49.8558 27.2122 49.8558 28.647 49.0541 29.2841L46.7978 30.5618L43.4541 27.9296L46.806 25.3477L49.0006 26.5751Z" fill="#FFC801"/>
<path d="M46.8144 30.55L46.8139 30.5495H46.8134L43.4502 27.9317L43.4491 27.9307L43.4486 27.9312L43.4497 27.9322L43.4486 27.9312L43.4471 27.9297L43.4353 27.9387L31.0508 37.3712V37.7654C31.0508 38.2861 31.1726 38.8415 31.5885 39.0343C32.1364 39.2884 32.9359 38.7918 32.9359 38.7918L46.8144 30.55Z" fill="#F93647"/>
<path d="M43.4353 27.9387L31.0508 37.3713V18.2949L43.4323 27.9348L43.4353 27.9387Z" fill="#00D3FF"/>
<path d="M31.0527 18.1034V18.2943L43.4342 27.9341L43.4373 27.9381L43.4491 27.9291L43.4501 27.9286L43.4551 27.9247L46.807 25.3621C46.807 25.3621 36.0268 18.9172 32.9017 17.0584C32.7658 16.9775 32.44 16.7724 32.0493 16.9004C31.5813 17.0537 31.0527 17.6103 31.0527 18.1034Z" fill="#00EF77"/>
<path d="M76.0487 18.6968V19.0966C76.0487 19.966 75.7504 20.6895 75.1538 21.267C74.5573 21.8382 73.7672 22.1238 72.7835 22.1238C71.7681 22.1238 70.9273 21.7906 70.2609 21.1242C69.6009 20.4515 69.2709 19.6329 69.2709 18.6682C69.2709 17.7036 69.6009 16.8881 70.2609 16.2218C70.9273 15.5491 71.7618 15.2127 72.7645 15.2127C73.3801 15.2127 73.9449 15.3619 74.4589 15.6601C74.973 15.9521 75.3696 16.3392 75.6488 16.8215L74.8873 17.2689C74.6969 16.9072 74.4082 16.6184 74.021 16.4026C73.6403 16.1805 73.2183 16.0695 72.755 16.0695C71.9934 16.0695 71.3683 16.3201 70.8797 16.8215C70.391 17.3165 70.1467 17.9321 70.1467 18.6682C70.1467 19.4044 70.391 20.02 70.8797 20.515C71.3747 21.01 72.0125 21.2575 72.7931 21.2575C73.4594 21.2575 73.9988 21.0957 74.4113 20.772C74.8238 20.442 75.0745 20.0168 75.1634 19.4964H72.7169V18.6968H76.0487ZM77.6678 20.0009C77.7503 20.4261 77.9438 20.7561 78.2484 20.991C78.5594 21.2258 78.9402 21.3432 79.3908 21.3432C80.019 21.3432 80.476 21.1115 80.7615 20.6483L81.466 21.0481C81.0027 21.7652 80.3046 22.1238 79.3717 22.1238C78.6165 22.1238 78.0009 21.8889 77.525 21.4193C77.0553 20.9434 76.8205 20.3436 76.8205 19.6202C76.8205 18.9031 77.0522 18.3065 77.5154 17.8305C77.9787 17.3546 78.5784 17.1166 79.3146 17.1166C80.0127 17.1166 80.5807 17.3641 81.0186 17.8591C81.4628 18.3478 81.6849 18.938 81.6849 19.6297C81.6849 19.7503 81.6754 19.874 81.6563 20.0009H77.6678ZM79.3146 17.8972C78.8704 17.8972 78.5023 18.0241 78.2104 18.278C77.9184 18.5255 77.7376 18.8586 77.6678 19.2775H80.8472C80.7774 18.8269 80.5997 18.4842 80.3141 18.2494C80.0285 18.0146 79.6954 17.8972 79.3146 17.8972ZM85.1343 18.04H83.8682V20.6197C83.8682 20.8545 83.9127 21.0227 84.0015 21.1242C84.0967 21.2194 84.2395 21.2702 84.4299 21.2765C84.6203 21.2765 84.8551 21.2702 85.1343 21.2575V22C84.4108 22.0952 83.8809 22.0381 83.5446 21.8287C83.2082 21.6129 83.0401 21.2099 83.0401 20.6197V18.04H82.0977V17.2403H83.0401V16.1551L83.8682 15.9076V17.2403H85.1343V18.04ZM89.0366 16.3741C88.8779 16.3741 88.7446 16.3201 88.6367 16.2123C88.5289 16.1044 88.4749 15.9743 88.4749 15.822C88.4749 15.6697 88.5289 15.5396 88.6367 15.4317C88.7446 15.3174 88.8779 15.2603 89.0366 15.2603C89.1889 15.2603 89.319 15.3174 89.4269 15.4317C89.5347 15.5396 89.5887 15.6697 89.5887 15.822C89.5887 15.9743 89.5347 16.1044 89.4269 16.2123C89.319 16.3201 89.1889 16.3741 89.0366 16.3741ZM88.6177 22V17.2403H89.4459V22H88.6177ZM93.3462 18.04H92.0801V20.6197C92.0801 20.8545 92.1246 21.0227 92.2134 21.1242C92.3086 21.2194 92.4514 21.2702 92.6418 21.2765C92.8322 21.2765 93.067 21.2702 93.3462 21.2575V22C92.6227 22.0952 92.0928 22.0381 91.7565 21.8287C91.4201 21.6129 91.252 21.2099 91.252 20.6197V18.04H90.3095V17.2403H91.252V16.1551L92.0801 15.9076V17.2403H93.3462V18.04ZM100.847 21.4003C100.358 21.8826 99.7647 22.1238 99.0666 22.1238C98.3686 22.1238 97.7752 21.8826 97.2865 21.4003C96.8042 20.918 96.5631 20.3246 96.5631 19.6202C96.5631 18.9157 96.8042 18.3224 97.2865 17.8401C97.7752 17.3578 98.3686 17.1166 99.0666 17.1166C99.7647 17.1166 100.358 17.3578 100.847 17.8401C101.335 18.3224 101.58 18.9157 101.58 19.6202C101.58 20.3246 101.335 20.918 100.847 21.4003ZM99.0666 21.3146C99.5426 21.3146 99.9424 21.1528 100.266 20.8291C100.59 20.5055 100.752 20.1025 100.752 19.6202C100.752 19.1379 100.59 18.7349 100.266 18.4112C99.9424 18.0876 99.5426 17.9257 99.0666 17.9257C98.597 17.9257 98.2004 18.0876 97.8767 18.4112C97.5531 18.7349 97.3912 19.1379 97.3912 19.6202C97.3912 20.1025 97.5531 20.5055 97.8767 20.8291C98.2004 21.1528 98.597 21.3146 99.0666 21.3146ZM104.974 17.1166C105.532 17.1166 105.98 17.2943 106.316 17.6497C106.653 17.9987 106.821 18.4747 106.821 19.0776V22H105.993V19.1252C105.993 18.7381 105.888 18.4398 105.678 18.2304C105.469 18.0146 105.18 17.9067 104.812 17.9067C104.4 17.9067 104.066 18.0368 103.813 18.297C103.559 18.5508 103.432 18.9443 103.432 19.4774V22H102.604V17.2403H103.432V17.9257C103.768 17.3863 104.282 17.1166 104.974 17.1166Z" fill="#181B2E"/>
<path d="M80.142 37.5812C78.7564 38.3216 77.2068 38.6918 75.4934 38.6918C74.6261 38.6918 73.8275 38.5543 73.0977 38.2793C72.3784 37.9937 71.7544 37.5971 71.2255 37.0894C70.7073 36.5711 70.3001 35.9524 70.0039 35.2331C69.7077 34.5139 69.5597 33.7153 69.5597 32.8375C69.5597 31.9384 69.7077 31.124 70.0039 30.3942C70.3001 29.6538 70.7073 29.0244 71.2255 28.5062C71.7544 27.9879 72.3784 27.5913 73.0977 27.3163C73.8275 27.0307 74.6261 26.8879 75.4934 26.8879C76.3501 26.8879 77.154 26.9937 77.9049 27.2052C78.6559 27.4062 79.3275 27.7711 79.9198 28.2999L78.4444 29.7913C78.0847 29.4422 77.6458 29.1725 77.1275 28.9821C76.6198 28.7918 76.0804 28.6966 75.5092 28.6966C74.9275 28.6966 74.3986 28.8023 73.9227 29.0139C73.4573 29.2148 73.0554 29.5004 72.7169 29.8706C72.3784 30.2302 72.114 30.6533 71.9236 31.1398C71.7438 31.6264 71.6539 32.15 71.6539 32.7105C71.6539 33.3134 71.7438 33.8687 71.9236 34.3764C72.114 34.8841 72.3784 35.3231 72.7169 35.6932C73.0554 36.0634 73.4573 36.3543 73.9227 36.5659C74.3986 36.7774 74.9275 36.8832 75.5092 36.8832C76.0169 36.8832 76.4929 36.8356 76.9371 36.7404C77.3919 36.6452 77.7939 36.4971 78.1429 36.2961V33.6466H75.8424V31.8379H80.142V37.5812ZM82.1144 34.5985C82.1144 33.9956 82.2201 33.4509 82.4317 32.9644C82.6538 32.4673 82.9499 32.0442 83.3201 31.6951C83.6903 31.3461 84.1293 31.0764 84.637 30.886C85.1447 30.6956 85.6841 30.6004 86.2553 30.6004C86.8264 30.6004 87.3658 30.6956 87.8735 30.886C88.3812 31.0764 88.8202 31.3461 89.1904 31.6951C89.5606 32.0442 89.8514 32.4673 90.063 32.9644C90.2851 33.4509 90.3962 33.9956 90.3962 34.5985C90.3962 35.2014 90.2851 35.7514 90.063 36.2485C89.8514 36.7351 89.5606 37.1529 89.1904 37.5019C88.8202 37.851 88.3812 38.1207 87.8735 38.3111C87.3658 38.5014 86.8264 38.5966 86.2553 38.5966C85.6841 38.5966 85.1447 38.5014 84.637 38.3111C84.1293 38.1207 83.6903 37.851 83.3201 37.5019C82.9499 37.1529 82.6538 36.7351 82.4317 36.2485C82.2201 35.7514 82.1144 35.2014 82.1144 34.5985ZM84.0182 34.5985C84.0182 34.8947 84.0658 35.1803 84.161 35.4553C84.2668 35.7303 84.4149 35.9735 84.6053 36.1851C84.8062 36.3966 85.0442 36.5659 85.3192 36.6928C85.5942 36.8197 85.9062 36.8832 86.2553 36.8832C86.6043 36.8832 86.9163 36.8197 87.1913 36.6928C87.4663 36.5659 87.699 36.3966 87.8894 36.1851C88.0904 35.9735 88.2385 35.7303 88.3336 35.4553C88.4394 35.1803 88.4923 34.8947 88.4923 34.5985C88.4923 34.3024 88.4394 34.0168 88.3336 33.7418C88.2385 33.4668 88.0904 33.2235 87.8894 33.012C87.699 32.8004 87.4663 32.6312 87.1913 32.5043C86.9163 32.3774 86.6043 32.3139 86.2553 32.3139C85.9062 32.3139 85.5942 32.3774 85.3192 32.5043C85.0442 32.6312 84.8062 32.8004 84.6053 33.012C84.4149 33.2235 84.2668 33.4668 84.161 33.7418C84.0658 34.0168 84.0182 34.3024 84.0182 34.5985ZM91.9566 34.5985C91.9566 33.9956 92.0623 33.4509 92.2739 32.9644C92.496 32.4673 92.7921 32.0442 93.1623 31.6951C93.5325 31.3461 93.9715 31.0764 94.4792 30.886C94.9869 30.6956 95.5263 30.6004 96.0975 30.6004C96.6686 30.6004 97.208 30.6956 97.7157 30.886C98.2234 31.0764 98.6624 31.3461 99.0326 31.6951C99.4028 32.0442 99.6936 32.4673 99.9052 32.9644C100.127 33.4509 100.238 33.9956 100.238 34.5985C100.238 35.2014 100.127 35.7514 99.9052 36.2485C99.6936 36.7351 99.4028 37.1529 99.0326 37.5019C98.6624 37.851 98.2234 38.1207 97.7157 38.3111C97.208 38.5014 96.6686 38.5966 96.0975 38.5966C95.5263 38.5966 94.9869 38.5014 94.4792 38.3111C93.9715 38.1207 93.5325 37.851 93.1623 37.5019C92.7921 37.1529 92.496 36.7351 92.2739 36.2485C92.0623 35.7514 91.9566 35.2014 91.9566 34.5985ZM93.8604 34.5985C93.8604 34.8947 93.908 35.1803 94.0032 35.4553C94.109 35.7303 94.2571 35.9735 94.4474 36.1851C94.6484 36.3966 94.8864 36.5659 95.1614 36.6928C95.4364 36.8197 95.7484 36.8832 96.0975 36.8832C96.4465 36.8832 96.7585 36.8197 97.0335 36.6928C97.3085 36.5659 97.5412 36.3966 97.7316 36.1851C97.9326 35.9735 98.0806 35.7303 98.1758 35.4553C98.2816 35.1803 98.3345 34.8947 98.3345 34.5985C98.3345 34.3024 98.2816 34.0168 98.1758 33.7418C98.0806 33.4668 97.9326 33.2235 97.7316 33.012C97.5412 32.8004 97.3085 32.6312 97.0335 32.5043C96.7585 32.3774 96.4465 32.3139 96.0975 32.3139C95.7484 32.3139 95.4364 32.3774 95.1614 32.5043C94.8864 32.6312 94.6484 32.8004 94.4474 33.012C94.2571 33.2235 94.109 33.4668 94.0032 33.7418C93.908 34.0168 93.8604 34.3024 93.8604 34.5985ZM110.017 30.7908V37.724C110.017 38.4115 109.932 39.0303 109.763 39.5803C109.594 40.1409 109.33 40.6116 108.97 40.9923C108.621 41.3837 108.177 41.6851 107.637 41.8967C107.098 42.1082 106.458 42.214 105.718 42.214C105.009 42.214 104.337 42.1241 103.703 41.9443C103.068 41.7644 102.481 41.4366 101.942 40.9606L103.084 39.4058C103.465 39.7548 103.861 40.0245 104.274 40.2149C104.686 40.4053 105.162 40.5005 105.702 40.5005C106.156 40.5005 106.537 40.437 106.844 40.3101C107.161 40.1832 107.41 40.0087 107.59 39.7865C107.78 39.5644 107.912 39.2947 107.986 38.9774C108.071 38.6707 108.113 38.3269 108.113 37.9462V37.3909H108.081C107.806 37.7611 107.442 38.0413 106.987 38.2317C106.532 38.4115 106.067 38.5014 105.591 38.5014C105.019 38.5014 104.501 38.401 104.036 38.2C103.57 37.9885 103.168 37.7082 102.83 37.3591C102.502 37.0101 102.248 36.5976 102.068 36.1216C101.889 35.6457 101.799 35.138 101.799 34.5985C101.799 34.0379 101.883 33.5144 102.053 33.0278C102.222 32.5413 102.47 32.1182 102.798 31.7586C103.126 31.399 103.518 31.1187 103.972 30.9177C104.438 30.7062 104.967 30.6004 105.559 30.6004C106.098 30.6004 106.601 30.7062 107.066 30.9177C107.531 31.1293 107.902 31.4677 108.177 31.9331H108.208V30.7908H110.017ZM105.956 32.3139C105.617 32.3139 105.31 32.3721 105.035 32.4884C104.76 32.5942 104.522 32.7476 104.321 32.9485C104.131 33.1389 103.978 33.3769 103.861 33.6625C103.755 33.9375 103.703 34.2442 103.703 34.5827C103.703 34.8894 103.755 35.175 103.861 35.4394C103.978 35.7038 104.136 35.9365 104.337 36.1375C104.538 36.3384 104.776 36.4971 105.051 36.6134C105.326 36.7298 105.622 36.788 105.94 36.788C106.289 36.788 106.601 36.7298 106.876 36.6134C107.161 36.4971 107.399 36.3437 107.59 36.1533C107.791 35.9524 107.944 35.7144 108.05 35.4394C108.156 35.1644 108.208 34.8682 108.208 34.5509C108.208 33.8846 108.007 33.3452 107.606 32.9326C107.204 32.5201 106.654 32.3139 105.956 32.3139ZM112.363 26.4119H114.267V38.4062H112.363V26.4119ZM118.135 35.2649C118.198 35.836 118.42 36.2803 118.801 36.5976C119.182 36.9149 119.642 37.0735 120.181 37.0735C120.657 37.0735 121.054 36.9784 121.371 36.788C121.699 36.587 121.985 36.3384 122.228 36.0423L123.592 37.0735C123.148 37.6236 122.651 38.0149 122.101 38.2476C121.551 38.4803 120.975 38.5966 120.372 38.5966C119.801 38.5966 119.261 38.5014 118.753 38.3111C118.246 38.1207 117.807 37.851 117.437 37.5019C117.066 37.1529 116.77 36.7351 116.548 36.2485C116.337 35.7514 116.231 35.2014 116.231 34.5985C116.231 33.9956 116.337 33.4509 116.548 32.9644C116.77 32.4673 117.066 32.0442 117.437 31.6951C117.807 31.3461 118.246 31.0764 118.753 30.886C119.261 30.6956 119.801 30.6004 120.372 30.6004C120.901 30.6004 121.382 30.6956 121.815 30.886C122.26 31.0658 122.635 31.3302 122.942 31.6793C123.259 32.0283 123.502 32.462 123.672 32.9802C123.852 33.4879 123.941 34.075 123.941 34.7413V35.2649H118.135ZM122.038 33.837C122.027 33.2764 121.852 32.8375 121.514 32.5201C121.176 32.1923 120.705 32.0283 120.102 32.0283C119.531 32.0283 119.076 32.1923 118.738 32.5201C118.41 32.848 118.209 33.287 118.135 33.837H122.038ZM130.908 27.1735H134.684C135.224 27.1735 135.742 27.2264 136.239 27.3321C136.747 27.4379 137.191 27.6177 137.572 27.8716C137.953 28.1148 138.254 28.448 138.476 28.8711C138.709 29.2836 138.825 29.8019 138.825 30.4259C138.825 31.1346 138.703 31.7057 138.46 32.1394C138.217 32.573 137.889 32.9115 137.477 33.1548C137.064 33.3875 136.583 33.5461 136.033 33.6307C135.493 33.7153 134.928 33.7577 134.335 33.7577H132.907V38.4062H130.908V27.1735ZM134.113 32.0442C134.399 32.0442 134.695 32.0336 135.002 32.0124C135.308 31.9913 135.589 31.9278 135.842 31.8221C136.107 31.7163 136.318 31.5576 136.477 31.3461C136.646 31.1346 136.731 30.8384 136.731 30.4576C136.731 30.1086 136.657 29.8336 136.509 29.6326C136.361 29.4211 136.17 29.2624 135.938 29.1567C135.705 29.0403 135.446 28.9663 135.16 28.9345C134.875 28.9028 134.6 28.8869 134.335 28.8869H132.907V32.0442H134.113ZM140.623 26.4119H142.527V38.4062H140.623V26.4119ZM149.631 37.3591H149.583C149.308 37.7928 148.959 38.1101 148.536 38.3111C148.113 38.5014 147.648 38.5966 147.14 38.5966C146.791 38.5966 146.447 38.549 146.109 38.4538C145.781 38.3587 145.485 38.2159 145.22 38.0255C144.967 37.8351 144.76 37.5971 144.602 37.3115C144.443 37.026 144.364 36.6928 144.364 36.312C144.364 35.8995 144.438 35.5505 144.586 35.2649C144.734 34.9687 144.93 34.7255 145.173 34.5351C145.427 34.3341 145.718 34.1754 146.045 34.0591C146.373 33.9428 146.712 33.8581 147.061 33.8053C147.42 33.7418 147.78 33.7048 148.14 33.6942C148.499 33.673 148.838 33.6625 149.155 33.6625H149.631V33.4562C149.631 32.9802 149.467 32.6259 149.139 32.3932C148.811 32.15 148.394 32.0283 147.886 32.0283C147.484 32.0283 147.108 32.1024 146.759 32.2504C146.41 32.3879 146.109 32.5783 145.855 32.8216L144.856 31.8221C145.279 31.3884 145.77 31.0764 146.331 30.886C146.902 30.6956 147.489 30.6004 148.092 30.6004C148.632 30.6004 149.086 30.6639 149.457 30.7908C149.827 30.9072 150.133 31.0605 150.377 31.2509C150.62 31.4413 150.805 31.6634 150.932 31.9173C151.07 32.1605 151.165 32.4091 151.218 32.6629C151.281 32.9168 151.318 33.1653 151.329 33.4086C151.339 33.6413 151.345 33.8476 151.345 34.0274V38.4062H149.631V37.3591ZM149.52 34.9952H149.123C148.859 34.9952 148.563 35.0057 148.235 35.0269C147.907 35.0481 147.595 35.1009 147.299 35.1856C147.013 35.2596 146.77 35.3759 146.569 35.5346C146.368 35.6827 146.268 35.8942 146.268 36.1692C146.268 36.349 146.305 36.5024 146.379 36.6293C146.463 36.7457 146.569 36.8461 146.696 36.9308C146.823 37.0154 146.966 37.0788 147.124 37.1211C147.283 37.1529 147.442 37.1687 147.6 37.1687C148.256 37.1687 148.737 37.0154 149.044 36.7086C149.361 36.3913 149.52 35.963 149.52 35.4235V34.9952ZM152.52 30.7908H154.615L156.741 36.074H156.772L158.676 30.7908H160.659L157.058 40.0404C156.92 40.4 156.767 40.712 156.598 40.9765C156.439 41.2515 156.249 41.4789 156.027 41.6587C155.804 41.8491 155.54 41.9866 155.233 42.0712C154.937 42.1664 154.578 42.214 154.154 42.214C153.657 42.214 153.171 42.1505 152.695 42.0236L152.933 40.3101C153.081 40.363 153.234 40.4053 153.393 40.437C153.562 40.4793 153.731 40.5005 153.901 40.5005C154.133 40.5005 154.329 40.4793 154.488 40.437C154.646 40.3947 154.778 40.326 154.884 40.2308C155.001 40.1462 155.096 40.0298 155.17 39.8817C155.244 39.7442 155.323 39.575 155.408 39.374L155.773 38.4697L152.52 30.7908Z" fill="#181B2E"/>
<defs>
<filter id="filter0_b_284_843" x="-27.8335" y="-28.731" width="248.615" height="113.534" filterUnits="userSpaceOnUse" color-interpolation-filters="sRGB">
<feFlood flood-opacity="0" result="BackgroundImageFix"/>
<feGaussianBlur in="BackgroundImageFix" stdDeviation="14.3655"/>
<feComposite in2="SourceAlpha" operator="in" result="effect1_backgroundBlur_284_843"/>
<feBlend mode="normal" in="SourceGraphic" in2="effect1_backgroundBlur_284_843" result="shape"/>
</filter>
</defs>
</svg>
