<svg width="16" height="15" viewBox="0 0 16 15" fill="none" xmlns="http://www.w3.org/2000/svg">
<path d="M14.875 13.6661L11.0556 13.6661L11.0556 9.84668" stroke="#FFF2F6" stroke-width="1.52778" stroke-linecap="round" stroke-linejoin="round"/>
<path d="M8.76389 1.44336C9.94419 1.44443 11.099 1.78667 12.089 2.42878C13.0789 3.07089 13.8618 3.98546 14.3432 5.06216C14.8246 6.13887 14.9838 7.33172 14.8018 8.49684C14.6198 9.66197 14.1043 10.7496 13.3174 11.6285L11.4824 13.6656" stroke="#FFF2F6" stroke-width="1.52778" stroke-linecap="round" stroke-linejoin="round"/>
<path d="M1.12489 1.44336L4.94434 1.44336L4.94434 5.2628" stroke="#FFF2F6" stroke-width="1.52778" stroke-linecap="round" stroke-linejoin="round"/>
<path d="M7.23633 13.6656C6.05602 13.6645 4.90124 13.3223 3.91126 12.6802C2.92128 12.038 2.13839 11.1235 1.65702 10.0468C1.17566 8.97008 1.01637 7.77722 1.19838 6.6121C1.3804 5.44697 1.89593 4.35934 2.6828 3.4804L4.5178 1.44336" stroke="#FFF2F6" stroke-width="1.52778" stroke-linecap="round" stroke-linejoin="round"/>
</svg>
