<svg width="16" height="16" viewBox="0 0 16 16" fill="none" xmlns="http://www.w3.org/2000/svg">
<path opacity="0.64" d="M13.8182 0C14.3968 0 14.9518 0.252856 15.361 0.702944C15.7701 1.15303 16 1.76348 16 2.4V4H14.5455V13.6C14.5455 14.2365 14.3156 14.847 13.9064 15.2971C13.4972 15.7471 12.9423 16 12.3636 16H2.18182C1.60316 16 1.04821 15.7471 0.63904 15.2971C0.229869 14.847 0 14.2365 0 13.6V12H11.6364V13.6C11.6364 13.7959 11.7018 13.9851 11.8202 14.1315C11.9385 14.2779 12.1016 14.3715 12.2785 14.3944L12.3636 14.4C12.5418 14.4 12.7137 14.328 12.8468 14.1978C12.9799 14.0676 13.065 13.8882 13.0858 13.6936L13.0909 13.6V10.4H1.45455V2.4C1.45455 1.76348 1.68441 1.15303 2.09359 0.702944C2.50276 0.252856 3.05771 0 3.63636 0H13.8182Z" fill="#5F84F5"/>
</svg>
