<svg width="68" height="68" viewBox="0 0 68 68" fill="none" xmlns="http://www.w3.org/2000/svg">
<path d="M66.1142 25.5004C65.9091 25.5497 65.7318 25.6782 65.6211 25.8578C65.5103 26.0373 65.4751 26.2534 65.5232 26.4589C66.1053 28.93 66.4002 31.4601 66.4018 33.9988C66.3915 42.5891 62.9744 50.8246 56.9002 56.8988C50.826 62.9731 42.5905 66.3901 34.0002 66.4004C26.9448 66.4251 20.0787 64.119 14.4687 59.8402C15.222 58.7171 15.5229 57.3508 15.3113 56.0151C15.0997 54.6795 14.3911 53.4732 13.3275 52.6379C12.264 51.8027 10.9241 51.4002 9.57631 51.5112C8.22856 51.6222 6.97254 52.2384 6.05996 53.2364C5.14739 54.2344 4.64569 55.5404 4.65541 56.8927C4.66513 58.2449 5.18555 59.5436 6.11237 60.5284C7.0392 61.5131 8.30395 62.1112 9.65316 62.2028C11.0024 62.2945 12.3364 61.8728 13.3878 61.0223C19.2946 65.5696 26.5458 68.0236 34.0002 67.9978C39.1356 67.9923 44.2031 66.8248 48.8232 64.5827C53.4433 62.3406 57.4962 59.0822 60.6782 55.0514C63.8602 51.0206 66.0888 46.3221 67.1972 41.3077C68.3055 36.2933 68.2647 31.0932 67.078 26.0968C67.0542 25.9942 67.0103 25.8973 66.9489 25.8117C66.8875 25.7261 66.8098 25.6535 66.7202 25.598C66.6306 25.5426 66.531 25.5054 66.427 25.4887C66.323 25.4719 66.2167 25.4759 66.1142 25.5004Z" fill="url(#paint0_linear_318_311)"/>
<path d="M1.59748 33.9991C1.59783 28.2356 3.1354 22.5765 6.05166 17.6052C8.96792 12.634 13.1573 8.5305 18.1879 5.71787C23.2186 2.90524 28.9083 1.48525 34.6706 1.60432C40.4329 1.72339 46.0591 3.3772 50.9693 6.39524C50.4625 7.47952 50.3814 8.71459 50.742 9.85583C51.1027 10.9971 51.8788 11.9613 52.9166 12.5574C53.9544 13.1535 55.1783 13.3382 56.3458 13.0747C57.5134 12.8113 58.5394 12.119 59.2206 11.1349C59.9019 10.1509 60.1888 8.94683 60.0244 7.7613C59.86 6.57576 59.2564 5.4952 58.3331 4.73363C57.4097 3.97205 56.2341 3.58501 55.0389 3.64916C53.8438 3.71331 52.7163 4.22398 51.8798 5.08001C46.7295 1.89613 40.8223 0.145372 34.7688 0.00866863C28.7153 -0.128035 22.7352 1.35428 17.4463 4.30241C12.1575 7.25054 7.75188 11.5575 4.68478 16.7783C1.61769 21.999 0.000389486 27.9441 3.20609e-05 33.9991C-0.00283137 36.0746 0.186116 38.1459 0.564464 40.1866C0.596939 40.3704 0.693254 40.5369 0.836444 40.6568C0.979633 40.7766 1.16051 40.842 1.34721 40.8415C1.39558 40.8415 1.44379 40.8361 1.49098 40.8256C1.69919 40.788 1.88398 40.6693 2.00477 40.4956C2.12557 40.3219 2.17251 40.1073 2.13529 39.899C1.77635 37.9529 1.59633 35.9781 1.59748 33.9991Z" fill="url(#paint1_linear_318_311)"/>
<path d="M29.207 28.7215V29.2007H38.7917V28.7215C38.7172 22.2465 29.2816 22.2465 29.207 28.7215Z" fill="url(#paint2_linear_318_311)"/>
<path d="M56.3367 17.4015C47.3484 17.492 38.7009 11.9382 35.3942 9.54204C34.9881 9.24871 34.5 9.09082 33.9991 9.09082C33.4982 9.09082 33.01 9.24871 32.604 9.54204C29.2973 11.9382 20.6284 17.4707 11.6614 17.4015C11.343 17.3983 11.027 17.4582 10.7318 17.5776C10.4366 17.6971 10.1679 17.8737 9.94122 18.0974C9.71455 18.3211 9.53436 18.5875 9.41104 18.8811C9.28772 19.1747 9.22369 19.4898 9.22266 19.8083C9.22798 32.1033 11.6881 49.6912 32.9181 60.4367C33.2529 60.6074 33.6233 60.6963 33.9991 60.6963C34.3748 60.6963 34.7452 60.6074 35.08 60.4367C56.3101 49.6912 58.7702 32.1033 58.7755 19.8083C58.7707 19.1659 58.5112 18.5517 58.054 18.1004C57.5967 17.6492 56.9791 17.3978 56.3367 17.4015ZM42.785 41.7146C42.785 42.7738 42.3643 43.7896 41.6153 44.5386C40.8664 45.2875 39.8506 45.7083 38.7914 45.7083H29.2067C28.1476 45.7083 27.1318 45.2875 26.3828 44.5386C25.6339 43.7896 25.2131 42.7738 25.2131 41.7146V33.1949C25.2135 32.4182 25.4404 31.6585 25.866 31.0087C26.2916 30.359 26.8974 29.8475 27.6093 29.5368V28.7114C27.7051 20.1651 40.293 20.1651 40.3889 28.7114V29.5368C41.1007 29.8475 41.7066 30.359 42.1322 31.0087C42.5577 31.6585 42.7846 32.4182 42.785 33.1949V41.7146Z" fill="url(#paint3_linear_318_311)"/>
<path d="M35.3078 36.5379C35.296 36.4664 35.2993 36.3932 35.3177 36.3231C35.336 36.253 35.369 36.1876 35.4143 36.1311C35.5927 35.8731 35.6971 35.5713 35.7162 35.2583C35.7354 34.9453 35.6685 34.633 35.5229 34.3553C35.3773 34.0776 35.1585 33.8449 34.8901 33.6827C34.6218 33.5204 34.3142 33.4346 34.0006 33.4346C33.687 33.4346 33.3794 33.5204 33.111 33.6827C32.8427 33.8449 32.6239 34.0776 32.4783 34.3553C32.3326 34.633 32.2658 34.9453 32.2849 35.2583C32.3041 35.5713 32.4085 35.8731 32.5868 36.1311C32.632 36.187 32.6648 36.2518 32.6831 36.3212C32.7015 36.3907 32.705 36.4633 32.6933 36.5342C32.5682 37.1577 32.2141 38.9404 31.9644 40.1779C31.934 40.3323 31.9382 40.4914 31.9767 40.644C32.0152 40.7965 32.087 40.9386 32.1869 41.0601C32.2868 41.1816 32.4124 41.2794 32.5547 41.3465C32.697 41.4137 32.8523 41.4485 33.0096 41.4484H34.9905C35.148 41.4485 35.3037 41.4136 35.4461 41.3462C35.5886 41.2789 35.7143 41.1807 35.8143 41.0589C35.9142 40.937 35.9859 40.7945 36.0241 40.6416C36.0623 40.4887 36.0661 40.3293 36.0352 40.1747L35.3078 36.5379Z" fill="url(#paint4_linear_318_311)"/>
<defs>
<linearGradient id="paint0_linear_318_311" x1="36.3273" y1="25.4785" x2="36.3273" y2="67.998" gradientUnits="userSpaceOnUse">
<stop stop-color="#181B2E"/>
<stop offset="1" stop-color="#4D5794"/>
</linearGradient>
<linearGradient id="paint1_linear_318_311" x1="30.0348" y1="0" x2="30.0348" y2="40.8415" gradientUnits="userSpaceOnUse">
<stop stop-color="#181B2E"/>
<stop offset="1" stop-color="#4D5794"/>
</linearGradient>
<linearGradient id="paint2_linear_318_311" x1="33.9994" y1="23.8652" x2="33.9994" y2="29.2007" gradientUnits="userSpaceOnUse">
<stop stop-color="#181B2E"/>
<stop offset="1" stop-color="#4D5794"/>
</linearGradient>
<linearGradient id="paint3_linear_318_311" x1="33.9991" y1="9.09082" x2="33.9991" y2="60.6963" gradientUnits="userSpaceOnUse">
<stop stop-color="#181B2E"/>
<stop offset="1" stop-color="#4D5794"/>
</linearGradient>
<linearGradient id="paint4_linear_318_311" x1="34.0001" y1="33.4346" x2="34.0001" y2="41.4484" gradientUnits="userSpaceOnUse">
<stop stop-color="#181B2E"/>
<stop offset="1" stop-color="#4D5794"/>
</linearGradient>
</defs>
</svg>
