<svg width="16" height="14" viewBox="0 0 16 14" fill="none" xmlns="http://www.w3.org/2000/svg">
<path opacity="0.64" d="M1.34114 0.810655C1.4936 0.793327 1.64802 0.81708 1.78768 0.879345C1.92734 0.941611 2.04695 1.04002 2.13357 1.16394C3.37653 2.94189 4.86876 3.6814 6.52521 3.8494C6.60605 3.15683 6.79721 2.47249 7.15679 1.86969C7.68396 0.985238 8.54123 0.334667 9.76567 0.094203C11.4583 -0.238494 12.7468 0.36102 13.4937 1.09476L15.0028 0.81889C15.1607 0.789955 15.3238 0.805799 15.4728 0.864551C15.6218 0.923304 15.7505 1.02251 15.8437 1.15047C15.937 1.27843 15.9908 1.4298 15.9989 1.58671C16.007 1.74362 15.9691 1.89953 15.8895 2.03603L14.4411 4.52467C14.5733 8.11599 13.5527 10.6227 11.3766 12.3496C10.2229 13.2654 8.57071 13.785 6.75763 13.9456C4.93024 14.107 2.86453 13.9118 0.811446 13.3255C0.636026 13.2755 0.48201 13.171 0.37264 13.0278C0.263271 12.8847 0.204482 12.7106 0.205148 12.5319C0.205813 12.3532 0.265896 12.1796 0.37633 12.0372C0.486763 11.8949 0.641553 11.7915 0.81734 11.7427C1.84978 11.4553 2.63631 11.2074 3.34622 10.7734C2.33652 10.2497 1.59293 9.56454 1.06661 8.78385C0.33565 7.69847 0.0644882 6.48792 0.0105928 5.39677C-0.0433027 4.30562 0.117542 3.29435 0.287649 2.56555C0.384493 2.14968 0.497336 1.73298 0.653128 1.33441C0.708081 1.19391 0.801338 1.07081 0.922776 0.978479C1.04421 0.886147 1.18919 0.828106 1.34198 0.810655H1.34114Z" fill="#5F84F5"/>
</svg>
