<svg width="16" height="14" viewBox="0 0 16 14" fill="none" xmlns="http://www.w3.org/2000/svg">
<path opacity="0.64" d="M15.6344 2.18575C16 3.745 16 7 16 7C16 7 16 10.255 15.6344 11.8143C15.4312 12.6761 14.8368 13.3542 14.084 13.5835C12.7168 14 8 14 8 14C8 14 3.2856 14 1.916 13.5835C1.16 13.3507 0.5664 12.6735 0.3656 11.8143C2.38419e-08 10.255 0 7 0 7C0 7 2.38419e-08 3.745 0.3656 2.18575C0.5688 1.32388 1.1632 0.64575 1.916 0.4165C3.2856 -1.56462e-07 8 0 8 0C8 0 12.7168 -1.56462e-07 14.084 0.4165C14.84 0.64925 15.4336 1.3265 15.6344 2.18575ZM6.4 10.0625L11.2 7L6.4 3.9375V10.0625Z" fill="#5F84F5"/>
</svg>
